<svg width="64" height="64" viewBox="0 0 64 64" fill="none" xmlns="http://www.w3.org/2000/svg">
  <path d="M12 21.5C12 18.4624 14.4624 16 17.5 16H28.6C30.2638 16 31.8366 16.7551 32.8774 18.0521L35.1226 20.8479C36.1634 22.1449 37.7362 22.9 39.4 22.9H46.5C49.5376 22.9 52 25.3624 52 28.4V45.5C52 48.5376 49.5376 51 46.5 51H17.5C14.4624 51 12 48.5376 12 45.5V21.5Z" fill="#4285F4"/>
  <path d="M12 25.5C12 22.4624 14.4624 20 17.5 20H28.4C30.1602 20 31.8164 20.8427 32.8576 22.2662L34.7424 24.8438C35.7836 26.2673 37.4398 27.11 39.2 27.11H52V28.4C52 25.3624 49.5376 22.9 46.5 22.9H39.4C37.7362 22.9 36.1634 22.1449 35.1226 20.8479L32.8774 18.0521C31.8366 16.7551 30.2638 16 28.6 16H17.5C14.4624 16 12 18.4624 12 21.5V25.5Z" fill="#8AB4F8"/>
  <path d="M16 28.5C16 27.1193 17.1193 26 18.5 26H45.5C46.8807 26 48 27.1193 48 28.5V30H16V28.5Z" fill="#AECBFA"/>
  <path d="M16 31H48V45C48 46.6569 46.6569 48 45 48H19C17.3431 48 16 46.6569 16 45V31Z" fill="#4285F4"/>
</svg>
