<svg xmlns="http://www.w3.org/2000/svg" viewBox="0 0 64 64" fill="none">
  <defs>
    <linearGradient id="psd-bg" x1="8" y1="6" x2="56" y2="58" gradientUnits="userSpaceOnUse">
      <stop offset="0" stop-color="#002742"/>
      <stop offset="1" stop-color="#00111F"/>
    </linearGradient>
    <linearGradient id="psd-fold" x1="45" y1="0" x2="64" y2="20" gradientUnits="userSpaceOnUse">
      <stop stop-color="#4DC6FF"/>
      <stop offset="1" stop-color="#0F8FFF"/>
    </linearGradient>
  </defs>
  <rect width="64" height="64" rx="14" fill="url(#psd-bg)"/>
  <path d="M48 0h2c7.732 0 14 6.268 14 14v2L48 0Z" fill="url(#psd-fold)"/>
  <path
    d="M16.211 45V18.455h9.846c2.856 0 5.12.692 6.795 2.076 1.674 1.384 2.512 3.374 2.512 5.971 0 1.794-.403 3.317-1.208 4.568-.78 1.226-1.909 2.155-3.386 2.788-1.478.608-3.263.912-5.356.912h-3.892V45h-5.311Zm5.311-14.166h3.956c1.794 0 3.133-.356 4.019-1.069.911-.737 1.367-1.85 1.367-3.337 0-1.479-.444-2.58-1.331-3.302-.886-.722-2.171-1.084-3.855-1.084h-4.156v8.792Z"
    fill="#31C5F4"
  />
  <g transform="translate(-2.8 0.2)">
    <path
      d="M43.53 45.474c-1.934 0-3.618-.339-5.054-1.015-1.411-.675-2.633-1.641-3.665-2.898l2.938-3.12c.816.951 1.732 1.684 2.748 2.198 1.039.514 2.13.771 3.272.771 1.075 0 1.918-.205 2.532-.617.614-.414.921-.995.921-1.747 0-.678-.198-1.222-.594-1.634-.395-.412-.918-.752-1.569-1.021a19.402 19.402 0 0 0-2.155-.731 32.79 32.79 0 0 1-2.326-.77 11.254 11.254 0 0 1-2.115-1.171 5.96 5.96 0 0 1-1.569-1.841c-.396-.736-.594-1.658-.594-2.768 0-1.301.331-2.441.994-3.421.662-.999 1.597-1.778 2.804-2.338 1.23-.56 2.66-.84 4.292-.84 1.484 0 2.882.274 4.193.822 1.335.533 2.447 1.269 3.336 2.209l-2.936 3.12c-.74-.696-1.516-1.221-2.326-1.576a6.194 6.194 0 0 0-2.476-.534c-.927 0-1.655.177-2.183.531-.529.339-.793.823-.793 1.453 0 .581.197 1.047.594 1.398.395.35.918.647 1.568.89.652.242 1.371.488 2.158.731.81.244 1.586.523 2.326.841a9.476 9.476 0 0 1 2.153 1.264 5.73 5.73 0 0 1 1.57 1.95c.395.775.592 1.741.592 2.899 0 2.062-.735 3.705-2.208 4.93-1.449 1.225-3.472 1.837-6.07 1.837Z"
      fill="#31C5F4"
    />
  </g>
</svg>
