<svg width="549" height="87" viewBox="0 0 549 87" fill="none" xmlns="http://www.w3.org/2000/svg">
<path d="M120.073 33.7399C119.665 33.5496 119.584 33.4137 119.584 32.8427C119.584 31.4018 119.693 29.8249 119.72 29.3899C119.72 29.0093 119.829 28.7102 120.046 28.7102C120.291 28.7102 120.318 28.9549 120.318 29.1452C120.318 29.4987 120.426 30.0424 120.562 30.4774C121.133 32.4077 122.682 33.1418 124.313 33.1418C126.677 33.1418 127.819 31.5378 127.819 30.1512C127.819 28.8734 127.438 27.6499 125.237 25.9371L124.041 24.9855C121.16 22.729 120.155 20.8802 120.155 18.7596C120.155 15.8777 122.574 13.7843 126.215 13.7843C127.928 13.7843 129.015 14.0562 129.694 14.2193C129.939 14.2737 130.075 14.3552 130.075 14.5455C130.075 14.8718 129.966 15.6602 129.966 17.6993C129.966 18.2702 129.885 18.4877 129.667 18.4877C129.477 18.4877 129.395 18.3246 129.395 18.0255C129.395 17.7809 129.259 16.9652 128.716 16.2855C128.335 15.7962 127.574 15.0077 125.862 15.0077C123.932 15.0077 122.737 16.1496 122.737 17.7265C122.737 18.9227 123.335 19.8471 125.509 21.5055L126.243 22.0493C129.422 24.4418 130.537 26.2362 130.537 28.7374C130.537 30.2599 129.966 32.0815 128.064 33.3049C126.759 34.1477 125.291 34.3924 123.878 34.3924C122.356 34.3924 121.16 34.2021 120.046 33.7127L120.073 33.7399Z" fill="#FFFFFF"/>
<path d="M135.89 21.8042C135.89 17.8077 135.89 17.0736 135.836 16.2308C135.781 15.3336 135.564 14.9258 134.694 14.7355C134.477 14.6811 134.042 14.6539 133.661 14.6539C133.362 14.6539 133.227 14.5995 133.227 14.4092C133.227 14.2189 133.417 14.1646 133.797 14.1646C135.183 14.1646 136.841 14.2461 137.385 14.2461C138.282 14.2461 140.266 14.1646 141.081 14.1646C142.739 14.1646 144.506 14.3277 145.919 15.3064C146.653 15.7958 147.713 17.1551 147.713 18.8951C147.713 20.8255 146.897 22.6198 144.234 24.7677C146.571 27.7039 148.392 30.0421 149.941 31.6733C151.409 33.1958 152.496 33.3861 152.876 33.4677C153.175 33.522 153.393 33.5493 153.61 33.5493C153.828 33.5493 153.936 33.6308 153.936 33.7667C153.936 33.9842 153.746 34.0386 153.447 34.0386H150.947C149.479 34.0386 148.827 33.9027 148.147 33.5493C147.006 32.9511 146.028 31.7005 144.56 29.6886C143.5 28.2477 142.304 26.4533 141.951 26.0727C141.815 25.9096 141.652 25.8824 141.489 25.8824L139.206 25.828C139.206 25.828 138.988 25.8823 138.988 26.0455V26.4261C138.988 28.873 138.988 30.9392 139.124 32.0539C139.206 32.8152 139.369 33.3861 140.157 33.4949C140.565 33.5492 141.135 33.6036 141.434 33.6036C141.652 33.6036 141.761 33.6852 141.761 33.8211C141.761 34.0114 141.57 34.093 141.244 34.093C139.722 34.093 137.765 34.0114 137.385 34.0114C136.896 34.0114 135.238 34.093 134.178 34.093C133.852 34.093 133.661 34.0114 133.661 33.8211C133.661 33.6852 133.77 33.6036 134.096 33.6036C134.477 33.6036 134.803 33.5492 135.048 33.4949C135.564 33.3861 135.7 32.8152 135.809 32.0539C135.944 30.9392 135.944 28.873 135.944 26.4533V21.8314L135.89 21.8042ZM138.988 23.8977C138.988 24.1967 139.043 24.2783 139.233 24.3599C139.776 24.5502 140.565 24.6317 141.217 24.6317C142.277 24.6317 142.603 24.523 143.092 24.1967C143.88 23.6258 144.641 22.4023 144.641 20.2545C144.641 16.5298 142.168 15.4424 140.619 15.4424C139.967 15.4424 139.478 15.4423 139.233 15.5511C139.043 15.6055 138.988 15.7142 138.988 15.9045V23.8977Z" fill="#FFFFFF"/>
<path d="M157.252 21.8042C157.252 17.8077 157.252 17.0736 157.197 16.2308C157.143 15.3336 156.871 14.8986 156.3 14.7627C156.001 14.6811 155.675 14.6539 155.349 14.6539C155.077 14.6539 154.941 14.5996 154.941 14.3821C154.941 14.2189 155.159 14.1646 155.567 14.1646C156.572 14.1646 158.23 14.2461 158.991 14.2461C159.643 14.2461 161.192 14.1646 162.198 14.1646C162.551 14.1646 162.742 14.2189 162.742 14.3821C162.742 14.5996 162.578 14.6539 162.334 14.6539C162.089 14.6539 161.872 14.6539 161.546 14.7355C160.839 14.8714 160.622 15.3064 160.567 16.2308C160.513 17.0736 160.513 17.8077 160.513 21.8042V26.4261C160.513 28.9817 160.513 31.048 160.622 32.1899C160.703 32.8968 160.893 33.3861 161.682 33.4677C162.035 33.522 162.633 33.5764 163.013 33.5764C163.312 33.5764 163.421 33.658 163.421 33.7939C163.421 33.9842 163.204 34.0658 162.932 34.0658C161.192 34.0658 159.535 33.9842 158.828 33.9842C158.23 33.9842 156.572 34.0658 155.512 34.0658C155.186 34.0658 154.996 33.9842 154.996 33.7939C154.996 33.658 155.105 33.5764 155.431 33.5764C155.811 33.5764 156.137 33.522 156.382 33.4677C156.898 33.3589 157.061 32.9239 157.143 32.1627C157.279 31.048 157.279 28.9817 157.279 26.4261V21.8042H157.252Z" fill="#FFFFFF"/>
<path d="M177.962 14.3007C178.044 13.8657 178.207 13.621 178.397 13.621C178.587 13.621 178.778 13.7569 179.104 14.4366L186.279 29.2538L193.427 14.2463C193.644 13.8385 193.753 13.621 193.998 13.621C194.242 13.621 194.405 13.8928 194.46 14.4366L196.851 30.6675C197.096 32.3259 197.34 33.0872 198.129 33.3319C198.89 33.5766 199.406 33.6038 199.759 33.6038C200.004 33.6038 200.167 33.6038 200.167 33.7941C200.167 34.0116 199.841 34.0932 199.488 34.0932C198.835 34.0932 195.221 34.0116 194.161 33.93C193.563 33.8757 193.4 33.7941 193.4 33.631C193.4 33.495 193.508 33.4135 193.699 33.3319C193.862 33.2775 193.943 32.9241 193.834 32.19L192.258 20.6354H192.149L186.415 32.5434C185.817 33.7669 185.681 34.0116 185.436 34.0116C185.192 34.0116 184.947 33.495 184.512 32.7066C183.887 31.5103 181.795 27.4866 181.496 26.7525C181.251 26.2088 179.675 22.8919 178.778 20.9344H178.669L177.31 31.3744C177.256 31.8366 177.229 32.19 177.229 32.5978C177.229 33.0872 177.582 33.3319 178.017 33.4406C178.479 33.5494 178.859 33.5766 179.131 33.5766C179.349 33.5766 179.512 33.6309 179.512 33.7669C179.512 34.0116 179.267 34.0659 178.886 34.0659C177.772 34.0659 176.603 33.9844 176.141 33.9844C175.652 33.9844 174.375 34.0659 173.532 34.0659C173.261 34.0659 173.07 34.0116 173.07 33.7669C173.07 33.6309 173.233 33.5766 173.505 33.5766C173.723 33.5766 173.886 33.5766 174.293 33.495C175.027 33.3319 175.245 32.3259 175.38 31.4287L177.99 14.3007H177.962Z" fill="#FFFFFF"/>
<path d="M207.643 27.1875C207.643 27.1875 207.452 27.2419 207.398 27.405L205.985 31.1569C205.713 31.8094 205.577 32.4347 205.577 32.7609C205.577 33.2231 205.822 33.5766 206.637 33.5766H207.018C207.344 33.5766 207.425 33.631 207.425 33.7941C207.425 34.0116 207.262 34.0659 206.963 34.0659C206.121 34.0659 205.006 33.9844 204.191 33.9844C203.892 33.9844 202.452 34.0659 201.093 34.0659C200.739 34.0659 200.604 34.0116 200.604 33.7941C200.604 33.631 200.712 33.5766 200.93 33.5766C201.174 33.5766 201.528 33.5766 201.745 33.5222C202.941 33.3591 203.457 32.4619 203.974 31.1569L210.551 14.6541C210.877 13.8928 211.013 13.5938 211.285 13.5938C211.529 13.5938 211.692 13.8384 211.937 14.4366C212.562 15.8775 216.775 26.5894 218.46 30.5859C219.465 32.9512 220.226 33.3047 220.77 33.4406C221.15 33.5222 221.558 33.5494 221.884 33.5494C222.102 33.5494 222.237 33.5494 222.237 33.7669C222.237 33.9844 221.993 34.0388 221.042 34.0388C220.09 34.0388 218.188 34.0387 216.068 33.9844C215.606 33.9844 215.28 33.9844 215.28 33.7669C215.28 33.6037 215.388 33.5494 215.633 33.5222C215.823 33.4678 216.014 33.2231 215.878 32.9241L213.785 27.3506C213.785 27.3506 213.649 27.1603 213.513 27.1603H207.67L207.643 27.1875ZM212.997 25.8825C212.997 25.8825 213.16 25.801 213.133 25.7194L210.768 19.2216C210.768 19.2216 210.714 18.9769 210.632 18.9769C210.551 18.9769 210.496 19.1128 210.469 19.2216L208.05 25.6922C208.05 25.6922 208.05 25.8825 208.159 25.8825H212.997Z" fill="#FFFFFF"/>
<path d="M227.861 30.4774C227.915 32.5164 228.242 33.1961 228.785 33.3864C229.22 33.5495 229.736 33.5767 230.144 33.5767C230.443 33.5767 230.606 33.6311 230.606 33.7942C230.606 34.0117 230.362 34.0661 230.008 34.0661C228.296 34.0661 227.263 33.9845 226.747 33.9845C226.502 33.9845 225.279 34.0661 223.92 34.0661C223.594 34.0661 223.35 34.0661 223.35 33.7942C223.35 33.6311 223.513 33.5767 223.757 33.5767C224.111 33.5767 224.573 33.5767 224.926 33.4408C225.605 33.2233 225.714 32.4621 225.741 30.1783L225.986 14.6271C225.986 14.1105 226.068 13.7299 226.312 13.7299C226.611 13.7299 226.828 14.0833 227.29 14.5455C227.617 14.8717 231.585 19.1673 235.417 22.9736C237.211 24.768 240.744 28.5471 241.179 28.9549H241.314L241.043 17.1555C241.043 15.5514 240.771 15.062 240.146 14.7902C239.738 14.627 239.113 14.6271 238.76 14.6271C238.433 14.6271 238.352 14.5455 238.352 14.3824C238.352 14.1649 238.651 14.1377 239.031 14.1377C240.39 14.1377 241.668 14.2193 242.211 14.2193C242.51 14.2193 243.489 14.1377 244.793 14.1377C245.147 14.1377 245.391 14.1377 245.391 14.3824C245.391 14.5455 245.228 14.6271 244.929 14.6271C244.657 14.6271 244.467 14.627 244.141 14.7086C243.407 14.9261 243.19 15.4699 243.162 16.938L242.864 33.4952C242.864 34.0661 242.755 34.3108 242.537 34.3108C242.238 34.3108 241.939 34.0117 241.64 33.7399C239.983 32.163 236.613 28.7374 233.895 26.0186C231.041 23.1911 228.133 19.9014 227.644 19.412H227.562L227.861 30.4502V30.4774Z" fill="#FFFFFF"/>
<path d="M252.322 27.1875C252.322 27.1875 252.132 27.2419 252.078 27.405L250.664 31.1569C250.393 31.8094 250.257 32.4347 250.257 32.7609C250.257 33.2231 250.501 33.5766 251.317 33.5766H251.697C252.023 33.5766 252.105 33.631 252.105 33.7941C252.105 34.0116 251.942 34.0659 251.643 34.0659C250.8 34.0659 249.686 33.9844 248.871 33.9844C248.572 33.9844 247.131 34.0659 245.772 34.0659C245.419 34.0659 245.283 34.0116 245.283 33.7941C245.283 33.631 245.392 33.5766 245.609 33.5766C245.854 33.5766 246.207 33.5766 246.425 33.5222C247.62 33.3591 248.137 32.4619 248.653 31.1569L255.23 14.6541C255.556 13.8928 255.692 13.5938 255.964 13.5938C256.209 13.5938 256.372 13.8384 256.616 14.4366C257.242 15.8775 261.454 26.5894 263.139 30.5859C264.145 32.9512 264.906 33.3047 265.449 33.4406C265.83 33.5222 266.238 33.5494 266.564 33.5494C266.781 33.5494 266.917 33.5494 266.917 33.7669C266.917 33.9844 266.673 34.0388 265.721 34.0388C264.77 34.0388 262.868 34.0387 260.748 33.9844C260.286 33.9844 259.959 33.9844 259.959 33.7669C259.959 33.6037 260.068 33.5494 260.313 33.5222C260.503 33.4678 260.693 33.2231 260.557 32.9241L258.465 27.3506C258.465 27.3506 258.329 27.1603 258.193 27.1603H252.349L252.322 27.1875ZM257.676 25.8825C257.676 25.8825 257.84 25.801 257.812 25.7194L255.448 19.2216C255.448 19.2216 255.394 18.9769 255.312 18.9769C255.23 18.9769 255.176 19.1128 255.149 19.2216L252.73 25.6922C252.73 25.6922 252.73 25.8825 252.839 25.8825H257.676Z" fill="#FFFFFF"/>
<path d="M273.851 22.9733H273.987C274.884 21.9946 278.716 18.0796 279.477 17.2096C280.211 16.3396 280.782 15.6871 280.782 15.2521C280.782 14.953 280.673 14.7899 280.401 14.7355C280.157 14.6811 280.075 14.6268 280.075 14.4637C280.075 14.2734 280.211 14.219 280.483 14.219C281.026 14.219 282.467 14.3006 283.201 14.3006C284.016 14.3006 285.456 14.219 286.272 14.219C286.544 14.219 286.707 14.2734 286.707 14.4637C286.707 14.654 286.571 14.7083 286.326 14.7083C285.946 14.7083 285.293 14.8171 284.804 15.0074C283.989 15.3337 283.092 15.8774 281.978 16.9649C281.162 17.7534 277.194 21.6955 276.297 22.6471C277.249 23.8705 282.385 29.4168 283.418 30.3955C284.559 31.5102 285.755 32.6793 287.169 33.223C287.957 33.5493 288.473 33.6309 288.799 33.6309C288.99 33.6309 289.153 33.6852 289.153 33.8483C289.153 34.0386 289.017 34.1202 288.527 34.1202H286.245C285.456 34.1202 284.994 34.1202 284.424 34.0658C283.01 33.9299 282.304 33.359 281.162 32.3531C280.021 31.3199 274.83 25.2571 274.286 24.4959L273.987 24.088H273.851V26.4805C273.851 28.9002 273.851 30.9665 273.933 32.1083C273.987 32.8424 274.232 33.4133 274.884 33.5221C275.265 33.5765 275.835 33.6309 276.161 33.6309C276.379 33.6309 276.515 33.7124 276.515 33.8483C276.515 34.0386 276.297 34.1202 276.026 34.1202C274.558 34.1202 272.9 34.0387 272.248 34.0387C271.65 34.0387 269.992 34.1202 268.932 34.1202C268.606 34.1202 268.416 34.0386 268.416 33.8483C268.416 33.7124 268.524 33.6309 268.85 33.6309C269.231 33.6309 269.557 33.5765 269.802 33.5221C270.318 33.4133 270.454 32.8424 270.563 32.0812C270.699 30.9665 270.699 28.9002 270.699 26.4805V21.8587C270.699 17.8621 270.699 17.128 270.644 16.2852C270.59 15.388 270.372 14.9802 269.503 14.7899C269.285 14.7355 268.85 14.7083 268.47 14.7083C268.171 14.7083 268.035 14.654 268.035 14.4637C268.035 14.2734 268.225 14.219 268.606 14.219C269.992 14.219 271.65 14.3006 272.275 14.3006C272.9 14.3006 274.558 14.219 275.455 14.219C275.835 14.219 275.998 14.2734 275.998 14.4637C275.998 14.654 275.835 14.7083 275.618 14.7083C275.346 14.7083 275.21 14.7083 274.884 14.7899C274.177 14.9258 273.96 15.3609 273.906 16.2852C273.851 17.128 273.851 17.8621 273.851 21.8587V23.0005V22.9733Z" fill="#FFFFFF"/>
<path d="M290.753 21.8042C290.753 17.8077 290.753 17.0736 290.699 16.2308C290.644 15.3336 290.427 14.9258 289.557 14.7355C289.34 14.6811 288.905 14.6539 288.525 14.6539C288.226 14.6539 288.09 14.5995 288.09 14.4092C288.09 14.2189 288.28 14.1646 288.66 14.1646C290.047 14.1646 291.705 14.2461 292.493 14.2461C293.118 14.2461 294.776 14.1646 295.727 14.1646C296.107 14.1646 296.298 14.2189 296.298 14.4092C296.298 14.5995 296.135 14.6539 295.863 14.6539C295.564 14.6539 295.428 14.6539 295.102 14.7355C294.395 14.8714 294.178 15.3064 294.123 16.2308C294.069 17.0736 294.069 17.8077 294.069 21.8042V25.4746C294.069 29.2808 294.83 30.8848 296.107 31.9452C297.276 32.9239 298.499 33.0327 299.396 33.0327C300.537 33.0327 301.978 32.652 303.011 31.6189C304.451 30.178 304.533 27.8127 304.533 25.0939V21.8042C304.533 17.8077 304.533 17.0736 304.478 16.2308C304.424 15.3336 304.206 14.9258 303.337 14.7355C303.119 14.6811 302.685 14.6539 302.386 14.6539C302.087 14.6539 301.951 14.5995 301.951 14.4092C301.951 14.2189 302.141 14.1646 302.494 14.1646C303.826 14.1646 305.484 14.2461 305.511 14.2461C305.837 14.2461 307.468 14.1646 308.501 14.1646C308.881 14.1646 309.044 14.2189 309.044 14.4092C309.044 14.5995 308.881 14.6539 308.582 14.6539C308.283 14.6539 308.147 14.6539 307.821 14.7355C307.115 14.8714 306.897 15.3064 306.843 16.2308C306.788 17.0736 306.788 17.8077 306.788 21.8042V24.6045C306.788 27.5136 306.489 30.613 304.288 32.5161C302.413 34.1202 300.538 34.4192 298.825 34.4192C297.439 34.4192 294.912 34.3377 293.009 32.5977C291.677 31.4014 290.672 29.4439 290.672 25.6377V21.8042H290.753Z" fill="#FFFFFF"/>
<path d="M317.414 26.426C317.414 29.7973 317.414 31.5917 317.958 32.081C318.393 32.4617 319.099 32.652 321.138 32.652C322.524 32.652 323.556 32.652 324.209 31.9179C324.535 31.5645 324.834 30.8304 324.888 30.341C324.888 30.0964 324.97 29.9604 325.187 29.9604C325.377 29.9604 325.405 30.0964 325.405 30.3954C325.405 30.6945 325.214 32.652 325.024 33.4132C324.861 33.9842 324.725 34.1201 323.366 34.1201C321.464 34.1201 320.105 34.0657 318.936 34.0385C317.767 33.9842 316.816 33.957 315.729 33.957C315.43 33.957 314.859 33.957 314.234 33.957C313.636 33.957 312.957 34.0114 312.413 34.0114C312.087 34.0114 311.897 33.9298 311.897 33.7395C311.897 33.6035 312.006 33.522 312.332 33.522C312.712 33.522 313.039 33.4676 313.283 33.4132C313.8 33.3045 313.935 32.7336 314.044 31.9723C314.18 30.8576 314.18 28.7913 314.18 26.3717V21.7498C314.18 17.7532 314.18 17.0192 314.126 16.1763C314.071 15.2792 313.854 14.8714 312.984 14.6811C312.767 14.6267 312.468 14.5995 312.114 14.5995C311.815 14.5995 311.652 14.5451 311.652 14.3548C311.652 14.1645 311.843 14.1101 312.223 14.1101C313.446 14.1101 315.104 14.1917 315.811 14.1917C316.436 14.1917 318.365 14.1101 319.371 14.1101C319.752 14.1101 319.914 14.1645 319.914 14.3548C319.914 14.5451 319.751 14.5995 319.452 14.5995C319.154 14.5995 318.746 14.5995 318.42 14.6811C317.713 14.817 317.496 15.252 317.441 16.1763C317.387 17.0192 317.387 17.7532 317.387 21.7498V26.3717L317.414 26.426Z" fill="#FFFFFF"/>
<path d="M332.854 27.1875C332.854 27.1875 332.663 27.2419 332.609 27.405L331.196 31.1569C330.924 31.8094 330.788 32.4347 330.788 32.7609C330.788 33.2231 331.033 33.5766 331.848 33.5766H332.228C332.555 33.5766 332.636 33.631 332.636 33.7941C332.636 34.0116 332.473 34.0659 332.174 34.0659C331.332 34.0659 330.217 33.9844 329.402 33.9844C329.103 33.9844 327.663 34.0659 326.304 34.0659C325.95 34.0659 325.814 34.0116 325.814 33.7941C325.814 33.631 325.923 33.5766 326.141 33.5766C326.385 33.5766 326.738 33.5766 326.956 33.5222C328.152 33.3591 328.668 32.4619 329.185 31.1569L335.762 14.6541C336.088 13.8928 336.224 13.5938 336.495 13.5938C336.74 13.5938 336.903 13.8384 337.148 14.4366C337.773 15.8775 341.986 26.5894 343.671 30.5859C344.676 32.9512 345.437 33.3047 345.981 33.4406C346.361 33.5222 346.769 33.5494 347.095 33.5494C347.312 33.5494 347.448 33.5494 347.448 33.7669C347.448 33.9844 347.204 34.0388 346.252 34.0388C345.301 34.0388 343.399 34.0387 341.279 33.9844C340.817 33.9844 340.491 33.9844 340.491 33.7669C340.491 33.6037 340.599 33.5494 340.844 33.5222C341.034 33.4678 341.224 33.2231 341.089 32.9241L338.996 27.3506C338.996 27.3506 338.86 27.1603 338.724 27.1603H332.881L332.854 27.1875ZM338.208 25.8825C338.208 25.8825 338.371 25.801 338.344 25.7194L335.979 19.2216C335.979 19.2216 335.925 18.9769 335.843 18.9769C335.762 18.9769 335.707 19.1128 335.68 19.2216L333.261 25.6922C333.261 25.6922 333.261 25.8825 333.37 25.8825H338.208Z" fill="#FFFFFF"/>
<path d="M355.63 16.7745C355.032 15.3336 354.57 15.0345 353.646 14.7899C353.266 14.6811 352.831 14.6811 352.613 14.6811C352.369 14.6811 352.287 14.5995 352.287 14.4364C352.287 14.2189 352.586 14.1917 352.967 14.1917C354.353 14.1917 355.848 14.2733 356.772 14.2733C357.424 14.2733 358.701 14.1917 360.006 14.1917C360.332 14.1917 360.604 14.2461 360.604 14.4364C360.604 14.6267 360.441 14.6811 360.223 14.6811C359.815 14.6811 359.408 14.6811 359.19 14.8714C359 15.0073 358.919 15.1977 358.919 15.4152C358.919 15.7686 359.163 16.5027 359.516 17.427L364.028 29.3352H364.137C365.278 26.4533 368.676 17.998 369.301 16.258C369.437 15.9046 369.545 15.5239 369.545 15.2792C369.545 15.0617 369.436 14.8714 369.192 14.7899C368.866 14.6811 368.485 14.6539 368.132 14.6539C367.887 14.6539 367.697 14.6539 367.697 14.4364C367.697 14.2189 367.942 14.1646 368.431 14.1646C369.736 14.1646 370.85 14.2461 371.176 14.2461C371.611 14.2461 372.861 14.1646 373.649 14.1646C373.975 14.1646 374.193 14.2189 374.193 14.4092C374.193 14.5995 374.03 14.6539 373.758 14.6539C373.486 14.6539 372.943 14.6539 372.481 14.9802C372.127 15.2249 371.747 15.6599 371.04 17.3455C370.007 19.8195 369.301 21.2333 367.887 24.4686C366.202 28.302 364.979 31.1567 364.381 32.4889C363.702 34.0114 363.539 34.4192 363.186 34.4192C362.859 34.4192 362.696 34.0658 362.18 32.8152L355.576 16.7745H355.63Z" fill="#FFFFFF"/>
<path d="M378.048 21.8042C378.048 17.8077 378.048 17.0736 377.994 16.2308C377.94 15.3336 377.668 14.8986 377.097 14.7627C376.798 14.6811 376.472 14.6539 376.146 14.6539C375.874 14.6539 375.738 14.5996 375.738 14.3821C375.738 14.2189 375.956 14.1646 376.363 14.1646C377.369 14.1646 379.027 14.2461 379.788 14.2461C380.44 14.2461 381.989 14.1646 382.995 14.1646C383.348 14.1646 383.538 14.2189 383.538 14.3821C383.538 14.5996 383.375 14.6539 383.131 14.6539C382.886 14.6539 382.669 14.6539 382.343 14.7355C381.636 14.8714 381.419 15.3064 381.364 16.2308C381.31 17.0736 381.31 17.8077 381.31 21.8042V26.4261C381.31 28.9817 381.31 31.048 381.418 32.1899C381.5 32.8968 381.69 33.3861 382.478 33.4677C382.832 33.522 383.43 33.5764 383.81 33.5764C384.109 33.5764 384.218 33.658 384.218 33.7939C384.218 33.9842 384 34.0658 383.729 34.0658C381.989 34.0658 380.331 33.9842 379.625 33.9842C379.027 33.9842 377.369 34.0658 376.309 34.0658C375.983 34.0658 375.793 33.9842 375.793 33.7939C375.793 33.658 375.901 33.5764 376.227 33.5764C376.608 33.5764 376.934 33.522 377.179 33.4677C377.695 33.3589 377.858 32.9239 377.94 32.1627C378.076 31.048 378.076 28.9817 378.076 26.4261V21.8042H378.048Z" fill="#FFFFFF"/>
<path d="M391.232 30.4774C391.287 32.5164 391.613 33.1961 392.156 33.3864C392.591 33.5495 393.108 33.5767 393.515 33.5767C393.814 33.5767 393.977 33.6311 393.977 33.7942C393.977 34.0117 393.733 34.0661 393.379 34.0661C391.667 34.0661 390.634 33.9845 390.118 33.9845C389.873 33.9845 388.65 34.0661 387.292 34.0661C386.965 34.0661 386.721 34.0661 386.721 33.7942C386.721 33.6311 386.884 33.5767 387.128 33.5767C387.482 33.5767 387.944 33.5767 388.297 33.4408C388.977 33.2233 389.085 32.4621 389.112 30.1783L389.357 14.6271C389.357 14.1105 389.439 13.7299 389.683 13.7299C389.982 13.7299 390.2 14.0833 390.662 14.5455C390.988 14.8717 394.956 19.1673 398.788 22.9736C400.582 24.768 404.115 28.5471 404.55 28.9549H404.685L404.414 17.1555C404.414 15.5514 404.142 15.062 403.517 14.7902C403.109 14.627 402.484 14.6271 402.131 14.6271C401.805 14.6271 401.723 14.5455 401.723 14.3824C401.723 14.1649 402.022 14.1377 402.403 14.1377C403.761 14.1377 405.039 14.2193 405.582 14.2193C405.881 14.2193 406.86 14.1377 408.164 14.1377C408.518 14.1377 408.762 14.1377 408.762 14.3824C408.762 14.5455 408.599 14.6271 408.3 14.6271C408.028 14.6271 407.838 14.627 407.512 14.7086C406.778 14.9261 406.561 15.4699 406.534 16.938L406.235 33.4952C406.235 34.0661 406.126 34.3108 405.909 34.3108C405.61 34.3108 405.311 34.0117 405.012 33.7399C403.354 32.163 399.984 28.7374 397.266 26.0186C394.412 23.1911 391.504 19.9014 391.015 19.412H390.933L391.232 30.4502V30.4774Z" fill="#FFFFFF"/>
<path d="M415.69 27.1875C415.69 27.1875 415.499 27.2419 415.445 27.405L414.032 31.1569C413.76 31.8094 413.624 32.4347 413.624 32.7609C413.624 33.2231 413.869 33.5766 414.684 33.5766H415.064C415.391 33.5766 415.472 33.631 415.472 33.7941C415.472 34.0116 415.309 34.0659 415.01 34.0659C414.168 34.0659 413.053 33.9844 412.238 33.9844C411.939 33.9844 410.498 34.0659 409.14 34.0659C408.786 34.0659 408.65 34.0116 408.65 33.7941C408.65 33.631 408.759 33.5766 408.977 33.5766C409.221 33.5766 409.574 33.5766 409.792 33.5222C410.988 33.3591 411.504 32.4619 412.02 31.1569L418.598 14.6541C418.924 13.8928 419.06 13.5938 419.331 13.5938C419.576 13.5938 419.739 13.8384 419.984 14.4366C420.609 15.8775 424.821 26.5894 426.507 30.5859C427.512 32.9512 428.273 33.3047 428.817 33.4406C429.197 33.5222 429.605 33.5494 429.931 33.5494C430.148 33.5494 430.284 33.5494 430.284 33.7669C430.284 33.9844 430.04 34.0388 429.088 34.0388C428.137 34.0388 426.235 34.0387 424.115 33.9844C423.653 33.9844 423.327 33.9844 423.327 33.7669C423.327 33.6037 423.435 33.5494 423.68 33.5222C423.87 33.4678 424.06 33.2231 423.925 32.9241L421.832 27.3506C421.832 27.3506 421.696 27.1603 421.56 27.1603H415.717L415.69 27.1875ZM421.044 25.8825C421.044 25.8825 421.207 25.801 421.18 25.7194L418.815 19.2216C418.815 19.2216 418.761 18.9769 418.679 18.9769C418.598 18.9769 418.543 19.1128 418.516 19.2216L416.097 25.6922C416.097 25.6922 416.097 25.8825 416.206 25.8825H421.044Z" fill="#FFFFFF"/>
<path d="M435.397 27.2417C435.397 25.828 435.125 25.2571 434.799 24.4958C434.609 24.088 431.103 18.2971 430.179 16.9377C429.527 15.9589 428.874 15.3064 428.358 15.0074C428.032 14.817 427.57 14.6539 427.244 14.6539C427.026 14.6539 426.836 14.5995 426.836 14.4092C426.836 14.2461 427.026 14.1646 427.325 14.1646C427.787 14.1646 429.771 14.2461 430.641 14.2461C431.185 14.2461 432.272 14.1646 433.44 14.1646C433.712 14.1646 433.821 14.2461 433.821 14.4092C433.821 14.5724 433.63 14.5995 433.25 14.7083C433.005 14.7627 432.87 14.9802 432.87 15.1705C432.87 15.3608 433.005 15.687 433.196 16.0677C433.549 16.8561 437.245 23.1908 437.653 23.9249C437.925 23.2995 441.213 17.5086 441.594 16.693C441.865 16.122 441.947 15.6598 441.947 15.3336C441.947 15.0617 441.838 14.7899 441.403 14.6811C441.159 14.6267 440.941 14.5724 440.941 14.4092C440.941 14.2189 441.077 14.1646 441.376 14.1646C442.246 14.1646 443.089 14.2461 443.85 14.2461C444.42 14.2461 446.16 14.1646 446.649 14.1646C446.948 14.1646 447.111 14.2189 447.111 14.3821C447.111 14.5724 446.894 14.6539 446.622 14.6539C446.35 14.6539 445.861 14.7627 445.48 14.9802C444.937 15.2521 444.638 15.5511 444.067 16.258C443.197 17.3183 439.528 23.4899 439.039 24.6045C438.658 25.5561 438.658 26.3717 438.658 27.2417V29.3895C438.658 29.7973 438.658 30.912 438.74 32.0267C438.794 32.788 439.039 33.3589 439.827 33.4677C440.208 33.522 440.778 33.5764 441.132 33.5764C441.431 33.5764 441.539 33.658 441.539 33.7939C441.539 33.9842 441.322 34.0658 440.996 34.0658C439.338 34.0658 437.68 33.9842 436.973 33.9842C436.321 33.9842 434.663 34.0658 433.685 34.0658C433.304 34.0658 433.114 34.0114 433.114 33.7939C433.114 33.658 433.25 33.5764 433.522 33.5764C433.902 33.5764 434.201 33.522 434.446 33.4677C434.962 33.3589 435.207 32.788 435.261 32.0267C435.343 30.912 435.343 29.8245 435.343 29.3895V27.2417H435.397Z" fill="#FFFFFF"/>
<path d="M451.053 27.1875C451.053 27.1875 450.863 27.2419 450.808 27.405L449.395 31.1569C449.123 31.8094 448.987 32.4347 448.987 32.7609C448.987 33.2231 449.232 33.5766 450.047 33.5766H450.428C450.754 33.5766 450.835 33.631 450.835 33.7941C450.835 34.0116 450.672 34.0659 450.373 34.0659C449.531 34.0659 448.417 33.9844 447.601 33.9844C447.302 33.9844 445.862 34.0659 444.503 34.0659C444.15 34.0659 444.014 34.0116 444.014 33.7941C444.014 33.631 444.122 33.5766 444.34 33.5766C444.584 33.5766 444.938 33.5766 445.155 33.5222C446.351 33.3591 446.867 32.4619 447.384 31.1569L453.961 14.6541C454.287 13.8928 454.423 13.5938 454.695 13.5938C454.939 13.5938 455.102 13.8384 455.347 14.4366C455.972 15.8775 460.185 26.5894 461.87 30.5859C462.875 32.9512 463.636 33.3047 464.18 33.4406C464.56 33.5222 464.968 33.5494 465.294 33.5494C465.512 33.5494 465.648 33.5494 465.648 33.7669C465.648 33.9844 465.403 34.0388 464.452 34.0388C463.501 34.0388 461.598 34.0387 459.478 33.9844C459.016 33.9844 458.69 33.9844 458.69 33.7669C458.69 33.6037 458.799 33.5494 459.043 33.5222C459.233 33.4678 459.424 33.2231 459.288 32.9241L457.195 27.3506C457.195 27.3506 457.059 27.1603 456.923 27.1603H451.08L451.053 27.1875ZM456.407 25.8825C456.407 25.8825 456.57 25.801 456.543 25.7194L454.178 19.2216C454.178 19.2216 454.124 18.9769 454.042 18.9769C453.961 18.9769 453.907 19.1128 453.879 19.2216L451.46 25.6922C451.46 25.6922 451.46 25.8825 451.569 25.8825H456.407Z" fill="#FFFFFF"/>
<path d="M483.284 32.299C483.284 33.0059 483.284 33.0603 482.931 33.2506C481.218 34.1478 478.664 34.4197 476.598 34.4197C470.157 34.4197 464.477 31.3747 464.477 24.1156C464.477 19.9287 466.651 16.9653 469.043 15.5243C471.57 14.0018 473.907 13.8115 476.109 13.8115C477.93 13.8115 480.24 14.1378 480.756 14.2194C481.3 14.3281 482.224 14.4912 482.822 14.5184C483.148 14.5184 483.175 14.6543 483.175 14.8447C483.175 15.1437 482.985 15.8778 482.985 19.1403C482.985 19.5481 482.903 19.684 482.686 19.684C482.496 19.684 482.441 19.5481 482.414 19.3578C482.333 18.7597 482.197 17.9169 481.517 17.1828C480.729 16.34 478.637 15.1437 475.674 15.1437C474.234 15.1437 472.304 15.2525 470.483 16.775C469.015 17.9984 468.064 19.9831 468.064 23.2184C468.064 28.8734 471.652 33.0875 477.196 33.0875C477.876 33.0875 478.799 33.0875 479.425 32.7884C479.805 32.5981 479.914 32.2718 479.914 31.8096V29.3356C479.914 28.0306 479.914 27.0247 479.914 26.2362C479.914 25.339 479.642 24.9312 478.772 24.7409C478.555 24.6865 478.12 24.6594 477.74 24.6594C477.495 24.6594 477.332 24.605 477.332 24.4418C477.332 24.2243 477.522 24.17 477.876 24.17C479.234 24.17 480.892 24.2515 481.68 24.2515C482.469 24.2515 483.882 24.17 484.752 24.17C485.105 24.17 485.268 24.2243 485.268 24.4418C485.268 24.605 485.105 24.6594 484.915 24.6594C484.697 24.6594 484.534 24.6593 484.208 24.7409C483.501 24.8768 483.23 25.3119 483.202 26.2362C483.202 27.0247 483.202 28.0849 483.202 29.3899V32.2719L483.284 32.299Z" fill="#FFFFFF"/>
<path d="M492.065 27.1875C492.065 27.1875 491.874 27.2419 491.82 27.405L490.407 31.1569C490.135 31.8094 489.999 32.4347 489.999 32.7609C489.999 33.2231 490.244 33.5766 491.059 33.5766H491.44C491.766 33.5766 491.847 33.631 491.847 33.7941C491.847 34.0116 491.684 34.0659 491.385 34.0659C490.543 34.0659 489.428 33.9844 488.613 33.9844C488.314 33.9844 486.874 34.0659 485.515 34.0659C485.161 34.0659 485.025 34.0116 485.025 33.7941C485.025 33.631 485.134 33.5766 485.352 33.5766C485.596 33.5766 485.95 33.5766 486.167 33.5222C487.363 33.3591 487.879 32.4619 488.396 31.1569L494.973 14.6541C495.299 13.8928 495.435 13.5938 495.707 13.5938C495.951 13.5938 496.114 13.8384 496.359 14.4366C496.984 15.8775 501.196 26.5894 502.882 30.5859C503.887 32.9512 504.648 33.3047 505.192 33.4406C505.572 33.5222 505.98 33.5494 506.306 33.5494C506.523 33.5494 506.659 33.5494 506.659 33.7669C506.659 33.9844 506.415 34.0388 505.463 34.0388C504.512 34.0388 502.61 34.0387 500.49 33.9844C500.028 33.9844 499.702 33.9844 499.702 33.7669C499.702 33.6037 499.81 33.5494 500.055 33.5222C500.245 33.4678 500.436 33.2231 500.3 32.9241L498.207 27.3506C498.207 27.3506 498.071 27.1603 497.935 27.1603H492.092L492.065 27.1875ZM497.419 25.8825C497.419 25.8825 497.582 25.801 497.555 25.7194L495.19 19.2216C495.19 19.2216 495.136 18.9769 495.054 18.9769C494.973 18.9769 494.918 19.1128 494.891 19.2216L492.472 25.6922C492.472 25.6922 492.472 25.8825 492.581 25.8825H497.419Z" fill="#FFFFFF"/>
<path d="M510.355 21.8042C510.355 17.8077 510.355 17.0736 510.301 16.2308C510.246 15.3336 510.029 14.9258 509.159 14.7355C508.942 14.6811 508.507 14.6539 508.126 14.6539C507.827 14.6539 507.691 14.5995 507.691 14.4092C507.691 14.2189 507.882 14.1646 508.262 14.1646C509.648 14.1646 511.306 14.2461 511.85 14.2461C512.747 14.2461 514.731 14.1646 515.546 14.1646C517.204 14.1646 518.97 14.3277 520.384 15.3064C521.117 15.7958 522.177 17.1551 522.177 18.8951C522.177 20.8255 521.362 22.6198 518.699 24.7677C521.036 27.7039 522.857 30.0421 524.406 31.6733C525.874 33.1958 526.961 33.3861 527.341 33.4677C527.64 33.522 527.858 33.5493 528.075 33.5493C528.292 33.5493 528.401 33.6308 528.401 33.7667C528.401 33.9842 528.211 34.0386 527.912 34.0386H525.412C523.944 34.0386 523.292 33.9027 522.612 33.5493C521.471 32.9511 520.492 31.7005 519.025 29.6886C517.965 28.2477 516.769 26.4533 516.416 26.0727C516.28 25.9096 516.117 25.8824 515.954 25.8824L513.671 25.828C513.671 25.828 513.453 25.8823 513.453 26.0455V26.4261C513.453 28.873 513.453 30.9392 513.589 32.0539C513.671 32.8152 513.834 33.3861 514.622 33.4949C515.029 33.5492 515.6 33.6036 515.899 33.6036C516.117 33.6036 516.225 33.6852 516.225 33.8211C516.225 34.0114 516.035 34.093 515.709 34.093C514.187 34.093 512.23 34.0114 511.85 34.0114C511.361 34.0114 509.703 34.093 508.643 34.093C508.316 34.093 508.126 34.0114 508.126 33.8211C508.126 33.6852 508.235 33.6036 508.561 33.6036C508.942 33.6036 509.268 33.5492 509.512 33.4949C510.029 33.3861 510.165 32.8152 510.273 32.0539C510.409 30.9392 510.409 28.873 510.409 26.4533V21.8314L510.355 21.8042ZM513.453 23.8977C513.453 24.1967 513.508 24.2783 513.698 24.3599C514.241 24.5502 515.03 24.6317 515.682 24.6317C516.742 24.6317 517.068 24.523 517.557 24.1967C518.345 23.6258 519.106 22.4023 519.106 20.2545C519.106 16.5298 516.633 15.4424 515.084 15.4424C514.432 15.4424 513.942 15.4423 513.698 15.5511C513.508 15.6055 513.453 15.7142 513.453 15.9045V23.8977Z" fill="#FFFFFF"/>
<path d="M194.188 49.9707C194.188 48.122 194.188 47.7685 194.188 47.3879C194.188 46.9801 194.079 46.7898 193.672 46.681C193.563 46.681 193.373 46.6538 193.182 46.6538C193.046 46.6538 192.965 46.6538 192.965 46.5451C192.965 46.4363 193.046 46.4364 193.237 46.4364C193.563 46.4364 193.916 46.4364 194.215 46.4364C194.541 46.4364 194.813 46.4364 194.976 46.4364C195.357 46.4364 197.803 46.4364 198.02 46.4364C198.265 46.4364 198.455 46.382 198.536 46.3548C198.591 46.3548 198.672 46.3004 198.727 46.3004C198.781 46.3004 198.808 46.3548 198.808 46.4091C198.808 46.4907 198.754 46.6267 198.699 47.1976C198.699 47.3064 198.672 47.8501 198.645 48.0132C198.645 48.0676 198.618 48.1491 198.536 48.1491C198.455 48.1491 198.428 48.0948 198.428 47.986C198.428 47.9045 198.428 47.687 198.346 47.551C198.265 47.3335 198.129 47.1976 197.531 47.116C197.313 47.116 196.036 47.0617 195.791 47.0617C195.737 47.0617 195.71 47.0888 195.71 47.1704V50.2698C195.71 50.2698 195.71 50.4057 195.791 50.4057C196.063 50.4057 197.476 50.4057 197.748 50.4057C198.047 50.4057 198.237 50.3514 198.346 50.2154C198.428 50.1067 198.482 50.0523 198.536 50.0523C198.591 50.0523 198.618 50.0523 198.618 50.161C198.618 50.2698 198.564 50.4329 198.509 51.0582C198.509 51.3029 198.455 51.7923 198.455 51.8739C198.455 51.9826 198.455 52.0913 198.346 52.0913C198.265 52.0913 198.237 52.037 198.237 51.9826C198.237 51.8738 198.237 51.7107 198.183 51.5476C198.129 51.3029 197.966 51.1126 197.504 51.0854C197.286 51.0854 196.063 51.0582 195.764 51.0582C195.71 51.0582 195.683 51.1126 195.683 51.167V52.1185C195.683 52.5264 195.683 53.641 195.683 54.0217C195.683 54.8645 195.9 55.0548 197.15 55.0548C197.476 55.0548 197.993 55.0548 198.292 54.9188C198.618 54.7829 198.754 54.511 198.835 54.0217C198.835 53.8857 198.89 53.8314 198.971 53.8314C199.08 53.8314 199.08 53.9401 199.08 54.0488C199.08 54.3207 198.971 55.1635 198.917 55.4082C198.835 55.7345 198.727 55.7345 198.265 55.7345C197.341 55.7345 196.688 55.7345 196.145 55.7073C195.628 55.7073 195.248 55.6801 194.867 55.6801C194.731 55.6801 194.46 55.6801 194.161 55.6801C193.889 55.6801 193.563 55.6801 193.318 55.6801C193.155 55.6801 193.074 55.6529 193.074 55.5714C193.074 55.517 193.128 55.4626 193.264 55.4626C193.454 55.4626 193.59 55.4626 193.699 55.4082C193.943 55.3538 193.998 55.082 194.052 54.7285C194.106 54.212 194.106 53.2604 194.106 52.1185V49.9707H194.188Z" fill="#FFFFFF"/>
<path d="M208.052 53.9944C208.052 54.9459 208.242 55.2722 208.487 55.3538C208.704 55.4353 208.921 55.4353 209.112 55.4353C209.248 55.4353 209.329 55.4353 209.329 55.544C209.329 55.6528 209.22 55.6528 209.057 55.6528C208.269 55.6528 207.78 55.6256 207.535 55.6256C207.427 55.6256 206.856 55.6528 206.231 55.6528C206.068 55.6528 205.959 55.6528 205.959 55.544C205.959 55.4625 206.041 55.4353 206.149 55.4353C206.312 55.4353 206.53 55.4353 206.693 55.3809C207.019 55.2722 207.046 54.9187 207.073 53.8584L207.182 46.6265C207.182 46.3819 207.209 46.2188 207.345 46.2188C207.481 46.2188 207.59 46.3819 207.807 46.5994C207.943 46.7625 209.818 48.7472 211.585 50.5144C212.4 51.33 214.058 53.0972 214.276 53.2875H214.33L214.221 47.8228C214.221 47.0887 214.112 46.8441 213.814 46.7353C213.623 46.6538 213.351 46.6537 213.161 46.6537C213.025 46.6537 212.971 46.6265 212.971 46.545C212.971 46.4362 213.107 46.4363 213.297 46.4363C213.922 46.4363 214.52 46.4634 214.765 46.4634C214.901 46.4634 215.363 46.4363 215.961 46.4363C216.124 46.4363 216.232 46.4362 216.232 46.545C216.232 46.6265 216.151 46.6537 216.015 46.6537C215.906 46.6537 215.798 46.6537 215.662 46.6809C215.308 46.7897 215.227 47.0344 215.2 47.7141L215.064 55.4081C215.064 55.68 215.009 55.7887 214.901 55.7887C214.765 55.7887 214.629 55.6528 214.493 55.5169C213.732 54.7828 212.156 53.1787 210.905 51.9281C209.574 50.6231 208.215 49.1006 207.997 48.8559H207.97L208.106 53.9672L208.052 53.9944Z" fill="#FFFFFF"/>
<path d="M231.505 54.8372C231.505 55.1635 231.505 55.1907 231.342 55.2722C230.554 55.6801 229.358 55.816 228.407 55.816C225.417 55.816 222.781 54.4022 222.781 51.031C222.781 49.0735 223.787 47.7141 224.901 47.0344C226.07 46.3276 227.157 46.246 228.19 46.246C229.032 46.246 230.092 46.3819 230.337 46.4363C230.581 46.4907 231.016 46.545 231.288 46.5722C231.424 46.5722 231.451 46.6266 231.451 46.7082C231.451 46.8441 231.369 47.1704 231.369 48.72C231.369 48.9104 231.342 48.9647 231.234 48.9647C231.152 48.9647 231.125 48.9104 231.125 48.8016C231.098 48.5297 231.016 48.1219 230.717 47.7957C230.364 47.4151 229.386 46.8441 227.999 46.8441C227.32 46.8441 226.45 46.8985 225.581 47.6053C224.901 48.1763 224.466 49.1007 224.466 50.596C224.466 53.206 226.124 55.1907 228.706 55.1907C229.032 55.1907 229.44 55.1907 229.739 55.0547C229.929 54.9732 229.956 54.8101 229.956 54.5926V53.4506C229.956 52.8525 229.956 52.3631 229.956 52.0097C229.956 51.6019 229.847 51.4116 229.44 51.33C229.331 51.33 229.141 51.3028 228.978 51.3028C228.869 51.3028 228.788 51.3029 228.788 51.1941C228.788 51.0854 228.869 51.0853 229.032 51.0853C229.657 51.0853 230.445 51.1126 230.799 51.1126C231.152 51.1126 231.832 51.0853 232.239 51.0853C232.402 51.0853 232.484 51.0854 232.484 51.1941C232.484 51.2757 232.402 51.3028 232.321 51.3028C232.212 51.3028 232.13 51.3028 231.995 51.33C231.668 51.3844 231.533 51.6019 231.533 52.0097C231.533 52.3631 231.533 52.8525 231.533 53.4779V54.81L231.505 54.8372Z" fill="#FFFFFF"/>
<path d="M240.015 49.9709C240.015 48.1221 240.015 47.7687 240.015 47.3881C240.015 46.9802 239.879 46.7627 239.608 46.7084C239.472 46.6812 239.309 46.654 239.173 46.654C239.064 46.654 238.982 46.654 238.982 46.5453C238.982 46.4637 239.091 46.4365 239.281 46.4365C239.743 46.4365 240.504 46.4637 240.858 46.4637C241.157 46.4637 241.89 46.4365 242.352 46.4365C242.516 46.4365 242.597 46.4365 242.597 46.5453C242.597 46.654 242.516 46.654 242.407 46.654C242.298 46.654 242.189 46.654 242.054 46.6812C241.727 46.7356 241.619 46.9531 241.592 47.3881C241.592 47.7687 241.592 48.1221 241.592 49.9709V52.1187C241.592 53.2878 241.592 54.2665 241.646 54.7831C241.673 55.1093 241.755 55.3268 242.135 55.3812C242.298 55.3812 242.57 55.4356 242.76 55.4356C242.896 55.4356 242.951 55.4627 242.951 55.5443C242.951 55.6259 242.842 55.6531 242.733 55.6531C241.918 55.6531 241.157 55.6259 240.831 55.6259C240.559 55.6259 239.771 55.6531 239.281 55.6531C239.118 55.6531 239.037 55.6259 239.037 55.5443C239.037 55.4899 239.091 55.4356 239.227 55.4356C239.417 55.4356 239.553 55.4356 239.662 55.3812C239.906 55.3268 239.988 55.1365 240.015 54.7831C240.07 54.2665 240.07 53.315 240.07 52.1187V49.9709H240.015Z" fill="#FFFFFF"/>
<path d="M251.808 53.9944C251.808 54.9459 251.998 55.2722 252.242 55.3538C252.46 55.4353 252.677 55.4353 252.867 55.4353C253.003 55.4353 253.085 55.4353 253.085 55.544C253.085 55.6528 252.976 55.6528 252.813 55.6528C252.025 55.6528 251.536 55.6256 251.291 55.6256C251.183 55.6256 250.612 55.6528 249.987 55.6528C249.823 55.6528 249.715 55.6528 249.715 55.544C249.715 55.4625 249.796 55.4353 249.905 55.4353C250.068 55.4353 250.286 55.4353 250.449 55.3809C250.775 55.2722 250.802 54.9187 250.829 53.8584L250.938 46.6265C250.938 46.3819 250.965 46.2188 251.101 46.2188C251.237 46.2188 251.346 46.3819 251.563 46.5994C251.699 46.7625 253.574 48.7472 255.341 50.5144C256.156 51.33 257.814 53.0972 258.031 53.2875H258.086L257.977 47.8228C257.977 47.0887 257.868 46.8441 257.569 46.7353C257.379 46.6538 257.107 46.6537 256.917 46.6537C256.781 46.6537 256.727 46.6265 256.727 46.545C256.727 46.4362 256.863 46.4363 257.053 46.4363C257.678 46.4363 258.276 46.4634 258.521 46.4634C258.656 46.4634 259.118 46.4363 259.716 46.4363C259.879 46.4363 259.988 46.4362 259.988 46.545C259.988 46.6265 259.907 46.6537 259.771 46.6537C259.662 46.6537 259.553 46.6537 259.417 46.6809C259.064 46.7897 258.983 47.0344 258.956 47.7141L258.819 55.4081C258.819 55.68 258.765 55.7887 258.656 55.7887C258.521 55.7887 258.385 55.6528 258.249 55.5169C257.488 54.7828 255.911 53.1787 254.661 51.9281C253.33 50.6231 251.971 49.1006 251.753 48.8559H251.726L251.862 53.9672L251.808 53.9944Z" fill="#FFFFFF"/>
<path d="M268.169 49.9707C268.169 48.122 268.169 47.7685 268.169 47.3879C268.169 46.9801 268.06 46.7898 267.652 46.681C267.543 46.681 267.353 46.6538 267.19 46.6538C267.054 46.6538 266.973 46.6538 266.973 46.5451C266.973 46.4363 267.054 46.4364 267.245 46.4364C267.571 46.4364 267.924 46.4364 268.223 46.4364C268.549 46.4364 268.821 46.4364 268.984 46.4364C269.364 46.4364 271.811 46.4364 272.028 46.4364C272.273 46.4364 272.463 46.382 272.544 46.3548C272.599 46.3548 272.68 46.3004 272.734 46.3004C272.789 46.3004 272.816 46.3548 272.816 46.4091C272.816 46.4907 272.762 46.6267 272.707 47.1976C272.707 47.3064 272.68 47.8501 272.653 48.0132C272.653 48.0676 272.626 48.1491 272.544 48.1491C272.463 48.1491 272.436 48.0948 272.436 47.986C272.436 47.9045 272.436 47.687 272.354 47.551C272.273 47.3335 272.137 47.1976 271.539 47.116C271.321 47.116 270.044 47.0617 269.799 47.0617C269.745 47.0617 269.718 47.0888 269.718 47.1704V50.2698C269.718 50.2698 269.718 50.4057 269.799 50.4057C270.071 50.4057 271.484 50.4057 271.756 50.4057C272.055 50.4057 272.218 50.3514 272.354 50.2154C272.436 50.1067 272.49 50.0523 272.544 50.0523C272.599 50.0523 272.626 50.0523 272.626 50.161C272.626 50.2698 272.571 50.4329 272.517 51.0582C272.517 51.3029 272.463 51.7923 272.463 51.8739C272.463 51.9826 272.463 52.0913 272.354 52.0913C272.273 52.0913 272.245 52.037 272.245 51.9826C272.245 51.8738 272.245 51.7107 272.191 51.5476C272.137 51.3029 271.974 51.1126 271.512 51.0854C271.294 51.0854 270.071 51.0582 269.772 51.0582C269.718 51.0582 269.69 51.1126 269.69 51.167V52.1185C269.69 52.5264 269.69 53.641 269.69 54.0217C269.69 54.8645 269.908 55.0548 271.158 55.0548C271.484 55.0548 272.001 55.0548 272.3 54.9188C272.626 54.7829 272.762 54.511 272.843 54.0217C272.843 53.8857 272.898 53.8314 272.979 53.8314C273.088 53.8314 273.088 53.9401 273.088 54.0488C273.088 54.3207 272.979 55.1635 272.925 55.4082C272.843 55.7345 272.734 55.7345 272.272 55.7345C271.348 55.7345 270.696 55.7345 270.153 55.7073C269.636 55.7073 269.256 55.6801 268.875 55.6801C268.739 55.6801 268.467 55.6801 268.169 55.6801C267.897 55.6801 267.571 55.6801 267.326 55.6801C267.163 55.6801 267.081 55.6529 267.081 55.5714C267.081 55.517 267.136 55.4626 267.272 55.4626C267.462 55.4626 267.598 55.4626 267.707 55.4082C267.951 55.3538 268.005 55.082 268.06 54.7285C268.114 54.212 268.114 53.2604 268.114 52.1185V49.9707H268.169Z" fill="#FFFFFF"/>
<path d="M279.475 49.9707C279.475 48.122 279.475 47.7685 279.475 47.3879C279.475 46.9801 279.366 46.7898 278.959 46.681C278.85 46.681 278.66 46.6538 278.469 46.6538C278.334 46.6538 278.252 46.6538 278.252 46.5451C278.252 46.4363 278.333 46.4364 278.524 46.4364C278.85 46.4364 279.203 46.4364 279.502 46.4364C279.828 46.4364 280.1 46.4364 280.263 46.4364C280.644 46.4364 283.09 46.4364 283.307 46.4364C283.552 46.4364 283.742 46.382 283.823 46.3548C283.878 46.3548 283.959 46.3004 284.014 46.3004C284.068 46.3004 284.095 46.3548 284.095 46.4091C284.095 46.4907 284.041 46.6267 283.987 47.1976C283.987 47.3064 283.959 47.8501 283.932 48.0132C283.932 48.0676 283.905 48.1491 283.823 48.1491C283.742 48.1491 283.715 48.0948 283.715 47.986C283.715 47.9045 283.715 47.687 283.633 47.551C283.552 47.3335 283.416 47.1976 282.818 47.116C282.6 47.116 281.323 47.0617 281.078 47.0617C281.024 47.0617 280.997 47.0888 280.997 47.1704V50.2698C280.997 50.2698 280.997 50.4057 281.078 50.4057C281.35 50.4057 282.764 50.4057 283.035 50.4057C283.334 50.4057 283.524 50.3514 283.633 50.2154C283.715 50.1067 283.769 50.0523 283.823 50.0523C283.878 50.0523 283.905 50.0523 283.905 50.161C283.905 50.2698 283.851 50.4329 283.796 51.0582C283.796 51.3029 283.742 51.7923 283.742 51.8739C283.742 51.9826 283.742 52.0913 283.633 52.0913C283.552 52.0913 283.525 52.037 283.525 51.9826C283.525 51.8738 283.524 51.7107 283.47 51.5476C283.416 51.3029 283.253 51.1126 282.791 51.0854C282.573 51.0854 281.35 51.0582 281.051 51.0582C280.997 51.0582 280.97 51.1126 280.97 51.167V52.1185C280.97 52.5264 280.97 53.641 280.97 54.0217C280.97 54.8645 281.187 55.0548 282.437 55.0548C282.763 55.0548 283.28 55.0548 283.579 54.9188C283.905 54.7829 284.041 54.511 284.122 54.0217C284.122 53.8857 284.177 53.8314 284.258 53.8314C284.367 53.8314 284.367 53.9401 284.367 54.0488C284.367 54.3207 284.258 55.1635 284.204 55.4082C284.122 55.7345 284.014 55.7345 283.552 55.7345C282.628 55.7345 281.975 55.7345 281.432 55.7073C280.915 55.7073 280.535 55.6801 280.154 55.6801C280.019 55.6801 279.747 55.6801 279.448 55.6801C279.176 55.6801 278.85 55.6801 278.605 55.6801C278.442 55.6801 278.361 55.6529 278.361 55.5714C278.361 55.517 278.415 55.4626 278.551 55.4626C278.741 55.4626 278.877 55.4626 278.986 55.4082C279.23 55.3538 279.285 55.082 279.339 54.7285C279.394 54.212 279.393 53.2604 279.393 52.1185V49.9707H279.475Z" fill="#FFFFFF"/>
<path d="M294.18 49.9709C294.18 48.1221 294.18 47.7687 294.18 47.3881C294.18 46.9802 294.071 46.79 293.664 46.6812C293.555 46.6812 293.365 46.654 293.175 46.654C293.039 46.654 292.957 46.654 292.957 46.5453C292.957 46.4365 293.039 46.4365 293.229 46.4365C293.881 46.4365 294.642 46.4637 294.914 46.4637C295.322 46.4637 296.246 46.4365 296.626 46.4365C297.387 46.4365 298.203 46.5181 298.882 46.9531C299.208 47.1977 299.697 47.7959 299.697 48.6387C299.697 49.5359 299.317 50.3787 298.094 51.3575C299.181 52.7168 300.023 53.8043 300.73 54.5656C301.41 55.2724 301.899 55.354 302.089 55.3812C302.225 55.3812 302.334 55.4084 302.442 55.4084C302.551 55.4084 302.578 55.4356 302.578 55.5171C302.578 55.6259 302.497 55.6259 302.361 55.6259H301.192C300.513 55.6259 300.214 55.5715 299.888 55.3812C299.371 55.1093 298.909 54.5384 298.203 53.5868C297.713 52.9071 297.143 52.0915 297.007 51.9012C296.952 51.8196 296.871 51.8196 296.789 51.8196H295.729C295.729 51.8196 295.621 51.8196 295.621 51.9012V52.0643C295.621 53.2062 295.62 54.1578 295.675 54.6743C295.702 55.0278 295.784 55.2996 296.164 55.354C296.354 55.354 296.626 55.4084 296.762 55.4084C296.871 55.4084 296.898 55.4356 296.898 55.5171C296.898 55.5987 296.816 55.6259 296.653 55.6259C295.947 55.6259 295.05 55.5987 294.86 55.5987C294.615 55.5987 293.854 55.6259 293.365 55.6259C293.202 55.6259 293.12 55.5987 293.12 55.5171C293.12 55.4628 293.174 55.4084 293.31 55.4084C293.501 55.4084 293.637 55.4084 293.745 55.354C293.99 55.2996 294.044 55.0278 294.099 54.6743C294.153 54.1578 294.153 53.2062 294.153 52.0643V49.9165L294.18 49.9709ZM295.593 50.9224C295.593 50.9224 295.593 51.1128 295.702 51.1399C295.947 51.2215 296.327 51.2487 296.626 51.2487C297.115 51.2487 297.278 51.1943 297.496 51.0312C297.849 50.7593 298.203 50.1884 298.203 49.2096C298.203 47.4696 297.061 46.9803 296.327 46.9803C296.028 46.9803 295.811 46.9803 295.675 47.0347C295.593 47.0347 295.566 47.1162 295.566 47.1978V50.8953L295.593 50.9224Z" fill="#FFFFFF"/>
<path d="M309.722 49.9709C309.722 48.1221 309.722 47.7687 309.722 47.3881C309.722 46.9802 309.586 46.7627 309.314 46.7084C309.179 46.6812 309.016 46.654 308.88 46.654C308.771 46.654 308.689 46.654 308.689 46.5453C308.689 46.4637 308.798 46.4365 308.988 46.4365C309.45 46.4365 310.211 46.4637 310.565 46.4637C310.864 46.4637 311.597 46.4365 312.06 46.4365C312.223 46.4365 312.304 46.4365 312.304 46.5453C312.304 46.654 312.223 46.654 312.114 46.654C312.005 46.654 311.896 46.654 311.761 46.6812C311.434 46.7356 311.326 46.9531 311.298 47.3881C311.298 47.7687 311.298 48.1221 311.298 49.9709V52.1187C311.298 53.2878 311.299 54.2665 311.353 54.7831C311.38 55.1093 311.462 55.3268 311.842 55.3812C312.005 55.3812 312.277 55.4356 312.467 55.4356C312.603 55.4356 312.657 55.4627 312.657 55.5443C312.657 55.6259 312.549 55.6531 312.44 55.6531C311.625 55.6531 310.864 55.6259 310.538 55.6259C310.266 55.6259 309.478 55.6531 308.988 55.6531C308.825 55.6531 308.744 55.6259 308.744 55.5443C308.744 55.4899 308.798 55.4356 308.934 55.4356C309.124 55.4356 309.26 55.4356 309.369 55.3812C309.614 55.3268 309.695 55.1365 309.722 54.7831C309.777 54.2665 309.776 53.315 309.776 52.1187V49.9709H309.722Z" fill="#FFFFFF"/>
<path d="M321.548 53.9944C321.548 54.9459 321.738 55.2722 321.983 55.3538C322.2 55.4353 322.418 55.4353 322.608 55.4353C322.744 55.4353 322.825 55.4353 322.825 55.544C322.825 55.6528 322.717 55.6528 322.553 55.6528C321.765 55.6528 321.276 55.6256 321.031 55.6256C320.923 55.6256 320.352 55.6528 319.727 55.6528C319.564 55.6528 319.455 55.6528 319.455 55.544C319.455 55.4625 319.537 55.4353 319.645 55.4353C319.808 55.4353 320.026 55.4353 320.189 55.3809C320.515 55.2722 320.542 54.9187 320.569 53.8584L320.678 46.6265C320.678 46.3819 320.705 46.2188 320.841 46.2188C320.977 46.2188 321.086 46.3819 321.303 46.5994C321.439 46.7625 323.314 48.7472 325.081 50.5144C325.896 51.33 327.554 53.0972 327.772 53.2875H327.826L327.717 47.8228C327.717 47.0887 327.609 46.8441 327.31 46.7353C327.119 46.6538 326.848 46.6537 326.657 46.6537C326.521 46.6537 326.467 46.6265 326.467 46.545C326.467 46.4362 326.603 46.4363 326.793 46.4363C327.418 46.4363 328.016 46.4634 328.261 46.4634C328.397 46.4634 328.859 46.4363 329.457 46.4363C329.62 46.4363 329.729 46.4362 329.729 46.545C329.729 46.6265 329.647 46.6537 329.511 46.6537C329.402 46.6537 329.294 46.6537 329.158 46.6809C328.804 46.7897 328.723 47.0344 328.696 47.7141L328.56 55.4081C328.56 55.68 328.506 55.7887 328.397 55.7887C328.261 55.7887 328.125 55.6528 327.989 55.5169C327.228 54.7828 325.652 53.1787 324.402 51.9281C323.07 50.6231 321.711 49.1006 321.493 48.8559H321.466L321.602 53.9672L321.548 53.9944Z" fill="#FFFFFF"/>
<path d="M344.974 54.8372C344.974 55.1635 344.974 55.1907 344.811 55.2722C344.023 55.6801 342.827 55.816 341.876 55.816C338.886 55.816 336.25 54.4022 336.25 51.031C336.25 49.0735 337.256 47.7141 338.37 47.0344C339.538 46.3276 340.626 46.246 341.658 46.246C342.501 46.246 343.561 46.3819 343.805 46.4363C344.05 46.4907 344.485 46.545 344.757 46.5722C344.893 46.5722 344.92 46.6266 344.92 46.7082C344.92 46.8441 344.838 47.1704 344.838 48.72C344.838 48.9104 344.811 48.9647 344.702 48.9647C344.621 48.9647 344.594 48.9104 344.594 48.8016C344.566 48.5297 344.485 48.1219 344.186 47.7957C343.833 47.4151 342.854 46.8441 341.468 46.8441C340.789 46.8441 339.919 46.8985 339.049 47.6053C338.37 48.1763 337.935 49.1007 337.935 50.596C337.935 53.206 339.593 55.1907 342.175 55.1907C342.501 55.1907 342.909 55.1907 343.208 55.0547C343.398 54.9732 343.425 54.8101 343.425 54.5926V53.4506C343.425 52.8525 343.425 52.3631 343.425 52.0097C343.425 51.6019 343.316 51.4116 342.909 51.33C342.8 51.33 342.61 51.3028 342.447 51.3028C342.338 51.3028 342.256 51.3029 342.256 51.1941C342.256 51.0854 342.338 51.0853 342.501 51.0853C343.126 51.0853 343.914 51.1126 344.267 51.1126C344.621 51.1126 345.3 51.0853 345.708 51.0853C345.871 51.0853 345.952 51.0854 345.952 51.1941C345.952 51.2757 345.871 51.3028 345.789 51.3028C345.681 51.3028 345.599 51.3028 345.463 51.33C345.137 51.3844 345.001 51.6019 345.001 52.0097C345.001 52.3631 345.001 52.8525 345.001 53.4779V54.81L344.974 54.8372Z" fill="#FFFFFF"/>
<path d="M363.454 54.4838C362.258 53.4235 361.932 52.0641 361.932 50.8951C361.932 50.0794 362.176 48.6385 363.345 47.551C364.215 46.7353 365.383 46.246 367.204 46.246C367.965 46.246 368.4 46.3004 368.971 46.3547C369.433 46.4091 369.813 46.5178 370.194 46.5722C370.33 46.5722 370.384 46.6538 370.384 46.7082C370.384 46.8169 370.357 46.9528 370.33 47.3878C370.33 47.7957 370.33 48.4754 370.303 48.72C370.303 48.9104 370.275 48.9919 370.167 48.9919C370.058 48.9919 370.058 48.8832 370.058 48.72C370.058 48.3394 369.895 47.9044 369.596 47.6053C369.188 47.1703 368.237 46.8441 367.123 46.8441C366.063 46.8441 365.356 47.116 364.84 47.6053C363.943 48.421 363.725 49.59 363.725 50.7591C363.725 53.6682 365.927 55.1091 367.558 55.1091C368.645 55.1091 369.297 55.0003 369.786 54.4294C370.004 54.2119 370.14 53.8585 370.194 53.6138C370.221 53.4235 370.248 53.3691 370.357 53.3691C370.439 53.3691 370.466 53.4507 370.466 53.5594C370.466 53.6954 370.33 54.7557 370.194 55.1907C370.14 55.4082 370.085 55.4625 369.868 55.5441C369.379 55.7344 368.455 55.816 367.666 55.816C366.008 55.816 364.595 55.4625 363.481 54.4838H363.454Z" fill="#FFFFFF"/>
<path d="M377.125 51.031C377.125 48.9375 378.511 46.246 382.153 46.246C385.197 46.246 387.072 48.0132 387.072 50.8135C387.072 53.6138 385.115 55.816 382.017 55.816C378.511 55.816 377.098 53.206 377.098 51.031H377.125ZM385.387 51.2757C385.387 48.5569 383.811 46.8441 381.827 46.8441C380.413 46.8441 378.837 47.6325 378.837 50.6503C378.837 53.1788 380.25 55.1907 382.588 55.1907C383.43 55.1907 385.414 54.7828 385.414 51.2485L385.387 51.2757Z" fill="#FFFFFF"/>
<path d="M396.399 52.118C396.399 53.6676 396.4 54.5104 396.644 54.7279C396.862 54.9183 397.16 54.9998 398.112 54.9998C398.764 54.9998 399.226 54.9998 399.525 54.6736C399.661 54.5105 399.824 54.1842 399.851 53.9395C399.851 53.8308 399.878 53.7492 399.987 53.7492C400.069 53.7492 400.096 53.8036 400.096 53.9667C400.096 54.1026 400.014 55.027 399.906 55.3805C399.824 55.6523 399.77 55.7067 399.144 55.7067C398.275 55.7067 397.622 55.7067 397.079 55.6795C396.535 55.6795 396.101 55.6523 395.584 55.6523C395.448 55.6523 395.176 55.6523 394.877 55.6523C394.606 55.6523 394.28 55.6523 394.035 55.6523C393.872 55.6523 393.79 55.6251 393.79 55.5436C393.79 55.4892 393.845 55.4348 393.981 55.4348C394.171 55.4348 394.307 55.4348 394.416 55.3805C394.66 55.3261 394.714 55.0542 394.769 54.7008C394.823 54.1842 394.823 53.2326 394.823 52.0907V49.943C394.823 48.0942 394.823 47.7408 394.823 47.3601C394.823 46.9523 394.715 46.762 394.307 46.6532C394.198 46.6532 394.062 46.6261 393.899 46.6261C393.763 46.6261 393.682 46.6261 393.682 46.5173C393.682 46.4086 393.763 46.4086 393.954 46.4086C394.524 46.4086 395.285 46.4358 395.611 46.4358C395.91 46.4358 396.807 46.4086 397.269 46.4086C397.432 46.4086 397.514 46.4086 397.514 46.5173C397.514 46.6261 397.432 46.6261 397.296 46.6261C397.16 46.6261 396.97 46.6261 396.834 46.6532C396.508 46.7076 396.4 46.9251 396.372 47.3601C396.372 47.7408 396.372 48.0942 396.372 49.943V52.0907L396.399 52.118Z" fill="#FFFFFF"/>
<path d="M409.388 52.118C409.388 53.6676 409.388 54.5104 409.632 54.7279C409.85 54.9183 410.149 54.9998 411.1 54.9998C411.752 54.9998 412.214 54.9998 412.513 54.6736C412.649 54.5105 412.812 54.1842 412.839 53.9395C412.839 53.8308 412.867 53.7492 412.975 53.7492C413.057 53.7492 413.084 53.8036 413.084 53.9667C413.084 54.1026 413.002 55.027 412.894 55.3805C412.812 55.6523 412.758 55.7067 412.133 55.7067C411.263 55.7067 410.611 55.7067 410.067 55.6795C409.524 55.6795 409.089 55.6523 408.572 55.6523C408.437 55.6523 408.165 55.6523 407.866 55.6523C407.594 55.6523 407.268 55.6523 407.023 55.6523C406.86 55.6523 406.779 55.6251 406.779 55.5436C406.779 55.4892 406.833 55.4348 406.969 55.4348C407.159 55.4348 407.295 55.4348 407.404 55.3805C407.648 55.3261 407.703 55.0542 407.757 54.7008C407.811 54.1842 407.811 53.2326 407.811 52.0907V49.943C407.811 48.0942 407.811 47.7408 407.811 47.3601C407.811 46.9523 407.703 46.762 407.295 46.6532C407.186 46.6532 407.05 46.6261 406.887 46.6261C406.752 46.6261 406.67 46.6261 406.67 46.5173C406.67 46.4086 406.751 46.4086 406.942 46.4086C407.512 46.4086 408.273 46.4358 408.6 46.4358C408.899 46.4358 409.795 46.4086 410.257 46.4086C410.421 46.4086 410.502 46.4086 410.502 46.5173C410.502 46.6261 410.421 46.6261 410.285 46.6261C410.149 46.6261 409.958 46.6261 409.823 46.6532C409.496 46.7076 409.388 46.9251 409.361 47.3601C409.361 47.7408 409.361 48.0942 409.361 49.943V52.0907L409.388 52.118Z" fill="#FFFFFF"/>
<path d="M420.829 49.9707C420.829 48.122 420.829 47.7685 420.829 47.3879C420.829 46.9801 420.72 46.7898 420.312 46.681C420.204 46.681 420.013 46.6538 419.85 46.6538C419.714 46.6538 419.633 46.6538 419.633 46.5451C419.633 46.4363 419.714 46.4364 419.905 46.4364C420.231 46.4364 420.584 46.4364 420.883 46.4364C421.209 46.4364 421.481 46.4364 421.644 46.4364C422.024 46.4364 424.47 46.4364 424.688 46.4364C424.933 46.4364 425.123 46.382 425.204 46.3548C425.259 46.3548 425.34 46.3004 425.395 46.3004C425.449 46.3004 425.476 46.3548 425.476 46.4091C425.476 46.4907 425.422 46.6267 425.367 47.1976C425.367 47.3064 425.34 47.8501 425.313 48.0132C425.313 48.0676 425.286 48.1491 425.204 48.1491C425.123 48.1491 425.096 48.0948 425.096 47.986C425.096 47.9045 425.096 47.687 425.014 47.551C424.933 47.3335 424.797 47.1976 424.199 47.116C423.981 47.116 422.704 47.0617 422.459 47.0617C422.405 47.0617 422.378 47.0888 422.378 47.1704V50.2698C422.378 50.2698 422.378 50.4057 422.459 50.4057C422.731 50.4057 424.144 50.4057 424.416 50.4057C424.715 50.4057 424.878 50.3514 425.014 50.2154C425.096 50.1067 425.15 50.0523 425.204 50.0523C425.259 50.0523 425.286 50.0523 425.286 50.161C425.286 50.2698 425.231 50.4329 425.177 51.0582C425.177 51.3029 425.123 51.7923 425.123 51.8739C425.123 51.9826 425.123 52.0913 425.014 52.0913C424.933 52.0913 424.905 52.037 424.905 51.9826C424.905 51.8738 424.905 51.7107 424.851 51.5476C424.797 51.3029 424.634 51.1126 424.172 51.0854C423.954 51.0854 422.731 51.0582 422.432 51.0582C422.378 51.0582 422.351 51.1126 422.351 51.167V52.1185C422.351 52.5264 422.351 53.641 422.351 54.0217C422.351 54.8645 422.568 55.0548 423.818 55.0548C424.144 55.0548 424.661 55.0548 424.96 54.9188C425.286 54.7829 425.422 54.511 425.503 54.0217C425.503 53.8857 425.558 53.8314 425.639 53.8314C425.748 53.8314 425.748 53.9401 425.748 54.0488C425.748 54.3207 425.639 55.1635 425.585 55.4082C425.503 55.7345 425.394 55.7345 424.932 55.7345C424.008 55.7345 423.356 55.7345 422.813 55.7073C422.296 55.7073 421.916 55.6801 421.535 55.6801C421.399 55.6801 421.128 55.6801 420.829 55.6801C420.557 55.6801 420.231 55.6801 419.986 55.6801C419.823 55.6801 419.741 55.6529 419.741 55.5714C419.741 55.517 419.796 55.4626 419.932 55.4626C420.122 55.4626 420.258 55.4626 420.367 55.4082C420.611 55.3538 420.665 55.082 420.72 54.7285C420.774 54.212 420.774 53.2604 420.774 52.1185V49.9707H420.829Z" fill="#FFFFFF"/>
<path d="M441.32 54.8372C441.32 55.1635 441.32 55.1907 441.157 55.2722C440.369 55.6801 439.173 55.816 438.222 55.816C435.232 55.816 432.596 54.4022 432.596 51.031C432.596 49.0735 433.601 47.7141 434.716 47.0344C435.884 46.3276 436.972 46.246 438.004 46.246C438.847 46.246 439.907 46.3819 440.151 46.4363C440.396 46.4907 440.831 46.545 441.102 46.5722C441.238 46.5722 441.266 46.6266 441.266 46.7082C441.266 46.8441 441.184 47.1704 441.184 48.72C441.184 48.9104 441.157 48.9647 441.048 48.9647C440.967 48.9647 440.939 48.9104 440.939 48.8016C440.912 48.5297 440.831 48.1219 440.532 47.7957C440.179 47.4151 439.2 46.8441 437.814 46.8441C437.135 46.8441 436.265 46.8985 435.395 47.6053C434.716 48.1763 434.281 49.1007 434.281 50.596C434.281 53.206 435.939 55.1907 438.521 55.1907C438.847 55.1907 439.254 55.1907 439.553 55.0547C439.744 54.9732 439.771 54.8101 439.771 54.5926V53.4506C439.771 52.8525 439.771 52.3631 439.771 52.0097C439.771 51.6019 439.662 51.4116 439.254 51.33C439.146 51.33 438.955 51.3028 438.792 51.3028C438.684 51.3028 438.602 51.3029 438.602 51.1941C438.602 51.0854 438.684 51.0853 438.847 51.0853C439.472 51.0853 440.26 51.1126 440.613 51.1126C440.967 51.1126 441.646 51.0853 442.054 51.0853C442.217 51.0853 442.298 51.0854 442.298 51.1941C442.298 51.2757 442.217 51.3028 442.135 51.3028C442.027 51.3028 441.945 51.3028 441.809 51.33C441.483 51.3844 441.347 51.6019 441.347 52.0097C441.347 52.3631 441.347 52.8525 441.347 53.4779V54.81L441.32 54.8372Z" fill="#FFFFFF"/>
<path d="M449.854 49.9707C449.854 48.122 449.854 47.7685 449.854 47.3879C449.854 46.9801 449.745 46.7898 449.338 46.681C449.229 46.681 449.039 46.6538 448.876 46.6538C448.74 46.6538 448.658 46.6538 448.658 46.5451C448.658 46.4363 448.74 46.4364 448.93 46.4364C449.256 46.4364 449.609 46.4364 449.908 46.4364C450.234 46.4364 450.506 46.4364 450.669 46.4364C451.05 46.4364 453.496 46.4364 453.713 46.4364C453.958 46.4364 454.148 46.382 454.23 46.3548C454.284 46.3548 454.366 46.3004 454.42 46.3004C454.474 46.3004 454.501 46.3548 454.501 46.4091C454.501 46.4907 454.447 46.6267 454.393 47.1976C454.393 47.3064 454.366 47.8501 454.338 48.0132C454.338 48.0676 454.311 48.1491 454.23 48.1491C454.148 48.1491 454.121 48.0948 454.121 47.986C454.121 47.9045 454.121 47.687 454.039 47.551C453.958 47.3335 453.822 47.1976 453.224 47.116C453.007 47.116 451.729 47.0617 451.485 47.0617C451.43 47.0617 451.403 47.0888 451.403 47.1704V50.2698C451.403 50.2698 451.403 50.4057 451.485 50.4057C451.756 50.4057 453.17 50.4057 453.442 50.4057C453.741 50.4057 453.904 50.3514 454.039 50.2154C454.121 50.1067 454.175 50.0523 454.23 50.0523C454.284 50.0523 454.311 50.0523 454.311 50.161C454.311 50.2698 454.257 50.4329 454.202 51.0582C454.202 51.3029 454.148 51.7923 454.148 51.8739C454.148 51.9826 454.148 52.0913 454.039 52.0913C453.958 52.0913 453.931 52.037 453.931 51.9826C453.931 51.8738 453.931 51.7107 453.876 51.5476C453.822 51.3029 453.659 51.1126 453.197 51.0854C452.979 51.0854 451.756 51.0582 451.457 51.0582C451.403 51.0582 451.376 51.1126 451.376 51.167V52.1185C451.376 52.5264 451.376 53.641 451.376 54.0217C451.376 54.8645 451.593 55.0548 452.844 55.0548C453.17 55.0548 453.686 55.0548 453.985 54.9188C454.311 54.7829 454.447 54.511 454.529 54.0217C454.529 53.8857 454.583 53.8314 454.664 53.8314C454.773 53.8314 454.773 53.9401 454.773 54.0488C454.773 54.3207 454.665 55.1635 454.61 55.4082C454.529 55.7345 454.42 55.7345 453.958 55.7345C453.034 55.7345 452.382 55.7345 451.838 55.7073C451.322 55.7073 450.941 55.6801 450.561 55.6801C450.425 55.6801 450.153 55.6801 449.854 55.6801C449.582 55.6801 449.256 55.6801 449.012 55.6801C448.848 55.6801 448.767 55.6529 448.767 55.5714C448.767 55.517 448.821 55.4626 448.957 55.4626C449.147 55.4626 449.283 55.4626 449.392 55.4082C449.637 55.3538 449.691 55.082 449.745 54.7285C449.8 54.212 449.8 53.2604 449.8 52.1185V49.9707H449.854Z" fill="#FFFFFF"/>
<path d="M213.675 74.0316C213.675 74.0316 213.73 74.0859 213.73 74.1403C213.73 74.1675 213.702 74.1947 213.675 74.1947C213.675 74.1947 213.621 74.1947 213.594 74.1675C213.023 73.7869 211.99 72.6722 211.99 71.1225C211.99 69.5728 213.159 68.3222 213.594 68.0231C213.621 68.0231 213.648 67.9688 213.675 67.9688C213.675 67.9688 213.73 67.9959 213.73 68.0231C213.73 68.0231 213.73 68.0775 213.675 68.1047C213.349 68.4853 212.67 69.6544 212.67 71.0137C212.67 72.3731 213.077 73.2975 213.648 74.0316M219.22 71.8294C219.22 71.8294 219.165 71.8294 219.165 71.8838L218.785 72.9169C218.703 73.1072 218.676 73.2703 218.676 73.3519C218.676 73.4878 218.73 73.5694 218.975 73.5694H219.084C219.084 73.5694 219.192 73.5694 219.192 73.6238C219.192 73.6781 219.138 73.7053 219.057 73.7053C218.839 73.7053 218.513 73.7053 218.296 73.7053C218.214 73.7053 217.833 73.7053 217.453 73.7053C217.344 73.7053 217.317 73.7053 217.317 73.6238C217.317 73.5694 217.344 73.5694 217.399 73.5694C217.453 73.5694 217.562 73.5694 217.616 73.5694C217.942 73.515 218.078 73.2703 218.214 72.9169L220.008 68.4309C220.089 68.2134 220.144 68.1319 220.198 68.1319C220.252 68.1319 220.307 68.1862 220.388 68.3494C220.551 68.73 221.693 71.6662 222.155 72.7537C222.427 73.4062 222.644 73.4878 222.78 73.5422C222.889 73.5422 222.997 73.5422 223.079 73.5422C223.133 73.5422 223.188 73.5422 223.188 73.5966C223.188 73.651 223.133 73.6781 222.862 73.6781C222.59 73.6781 222.073 73.6781 221.503 73.6781C221.367 73.6781 221.285 73.6781 221.285 73.6238C221.285 73.5694 221.312 73.5694 221.394 73.5694C221.448 73.5694 221.503 73.4878 221.448 73.4062L220.877 71.8838C220.877 71.8838 220.85 71.8294 220.796 71.8294H219.192H219.22ZM220.687 71.4487C220.687 71.4487 220.742 71.4487 220.714 71.3944L220.062 69.6272C220.062 69.6272 220.062 69.5728 220.035 69.5728C220.008 69.5728 220.008 69.6 219.981 69.6272L219.328 71.3944C219.328 71.3944 219.328 71.4487 219.356 71.4487H220.66H220.687ZM228.107 72.6994C228.107 73.2703 228.216 73.4334 228.351 73.4878C228.46 73.5422 228.596 73.5422 228.732 73.5422C228.813 73.5422 228.868 73.5422 228.868 73.5966C228.868 73.651 228.813 73.6781 228.705 73.6781C228.243 73.6781 227.944 73.6781 227.808 73.6781C227.754 73.6781 227.4 73.6781 227.047 73.6781C226.965 73.6781 226.884 73.6781 226.884 73.5966C226.884 73.5422 226.938 73.5422 226.992 73.5422C227.074 73.5422 227.21 73.5422 227.319 73.515C227.509 73.4606 227.536 73.2431 227.536 72.6178L227.591 68.3765C227.591 68.2406 227.59 68.1319 227.672 68.1319C227.753 68.1319 227.808 68.2134 227.944 68.3494C228.025 68.4309 229.113 69.6 230.172 70.6331C230.662 71.1225 231.64 72.1556 231.749 72.2644H231.776L231.694 69.0562C231.694 68.6212 231.613 68.4853 231.45 68.4038C231.341 68.3494 231.178 68.3494 231.069 68.3494C230.988 68.3494 230.961 68.3494 230.961 68.295C230.961 68.2406 231.042 68.2406 231.151 68.2406C231.531 68.2406 231.857 68.2406 232.021 68.2406C232.102 68.2406 232.374 68.2406 232.727 68.2406C232.809 68.2406 232.89 68.2406 232.89 68.295C232.89 68.3494 232.863 68.3494 232.754 68.3494C232.673 68.3494 232.618 68.3494 232.537 68.3494C232.347 68.4037 232.292 68.5669 232.265 68.9475L232.184 73.4606C232.184 73.6238 232.156 73.6781 232.102 73.6781C232.02 73.6781 231.939 73.5965 231.858 73.515C231.395 73.08 230.499 72.1556 229.738 71.4216C228.949 70.6331 228.161 69.7631 228.025 69.6272L228.107 72.645V72.6994ZM243.517 71.8294C243.517 71.8294 243.462 71.8294 243.462 71.8838L243.082 72.9169C243.001 73.1072 242.973 73.2703 242.973 73.3519C242.973 73.4878 243.028 73.5694 243.272 73.5694H243.381C243.381 73.5694 243.49 73.5694 243.49 73.6238C243.49 73.6781 243.435 73.7053 243.381 73.7053C243.136 73.7053 242.837 73.7053 242.62 73.7053C242.538 73.7053 242.158 73.7053 241.777 73.7053C241.696 73.7053 241.642 73.7053 241.642 73.6238C241.642 73.5694 241.669 73.5694 241.723 73.5694C241.778 73.5694 241.886 73.5694 241.941 73.5694C242.267 73.515 242.403 73.2703 242.539 72.9169L244.332 68.4309C244.414 68.2134 244.468 68.1319 244.522 68.1319C244.577 68.1319 244.631 68.1862 244.713 68.3494C244.876 68.73 246.017 71.6662 246.479 72.7537C246.751 73.4062 246.969 73.4878 247.104 73.5422C247.213 73.5422 247.322 73.5422 247.403 73.5422C247.458 73.5422 247.485 73.5422 247.485 73.5966C247.485 73.651 247.431 73.6781 247.159 73.6781C246.887 73.6781 246.371 73.6781 245.8 73.6781C245.664 73.6781 245.582 73.6781 245.582 73.6238C245.582 73.5694 245.61 73.5694 245.691 73.5694C245.745 73.5694 245.8 73.4878 245.746 73.4062L245.175 71.8838C245.175 71.8838 245.148 71.8294 245.093 71.8294H243.49H243.517ZM244.957 71.4487C244.957 71.4487 245.012 71.4487 244.985 71.3944L244.332 69.6272C244.332 69.6272 244.332 69.5728 244.305 69.5728C244.278 69.5728 244.278 69.6 244.251 69.6272L243.599 71.3944C243.599 71.3944 243.599 71.4487 243.626 71.4487H244.93H244.957ZM251.073 70.3613C251.073 69.2738 251.073 69.0835 251.073 68.8388C251.073 68.5941 250.991 68.4853 250.773 68.4309C250.719 68.4309 250.583 68.4309 250.502 68.4309C250.42 68.4309 250.366 68.4309 250.366 68.3765C250.366 68.3222 250.42 68.3222 250.529 68.3222C250.909 68.3222 251.344 68.3222 251.562 68.3222C251.725 68.3222 252.187 68.3222 252.431 68.3222C252.54 68.3222 252.594 68.3222 252.594 68.3765C252.594 68.4309 252.54 68.4309 252.486 68.4309C252.404 68.4309 252.35 68.4309 252.268 68.4309C252.078 68.4581 252.024 68.5941 251.996 68.8388C251.996 69.0563 251.996 69.2738 251.996 70.3613V71.3672C251.996 72.4003 252.214 72.8353 252.567 73.1344C252.893 73.4062 253.22 73.4334 253.464 73.4334C253.79 73.4334 254.171 73.3247 254.443 73.0528C254.85 72.645 254.85 72.0197 254.85 71.2856V70.3884C254.85 69.3009 254.85 69.1106 254.85 68.8659C254.85 68.6213 254.769 68.5125 254.551 68.4581C254.497 68.4581 254.361 68.4581 254.28 68.4581C254.198 68.4581 254.171 68.4581 254.171 68.4038C254.171 68.3494 254.225 68.3494 254.307 68.3494C254.687 68.3494 255.122 68.3494 255.122 68.3494C255.204 68.3494 255.666 68.3494 255.937 68.3494C256.046 68.3494 256.073 68.3494 256.073 68.4038C256.073 68.4581 256.019 68.4581 255.937 68.4581C255.856 68.4581 255.829 68.4581 255.72 68.4581C255.53 68.4853 255.475 68.6213 255.448 68.8659C255.448 69.0834 255.448 69.3009 255.448 70.3884V71.1497C255.448 71.9381 255.367 72.781 254.769 73.2975C254.252 73.7325 253.736 73.814 253.274 73.814C252.893 73.814 252.214 73.8141 251.698 73.3247C251.344 72.9984 251.073 72.4547 251.073 71.4216V70.3884V70.3613ZM261.944 68.6756H260.884C260.476 68.73 260.286 68.7572 260.177 68.9203C260.096 69.0291 260.069 69.1106 260.069 69.165C260.069 69.2194 260.041 69.2466 259.987 69.2466C259.933 69.2466 259.933 69.2194 259.933 69.1378C259.933 69.029 260.069 68.3766 260.069 68.3222C260.069 68.2406 260.123 68.1863 260.15 68.1863C260.204 68.1863 260.286 68.2678 260.449 68.2678C260.666 68.2678 260.938 68.295 261.156 68.295H263.982C264.2 68.295 264.363 68.295 264.471 68.2678C264.58 68.2678 264.634 68.2406 264.662 68.2406C264.716 68.2406 264.716 68.295 264.716 68.3765C264.716 68.5125 264.716 69.0291 264.716 69.1922C264.716 69.2737 264.716 69.301 264.662 69.301C264.607 69.301 264.58 69.2738 264.58 69.165V69.0834C264.58 68.8931 264.363 68.7028 263.738 68.6756H262.841V71.5847C262.841 72.2372 262.841 72.8081 262.868 73.1072C262.868 73.2975 262.922 73.4606 263.14 73.4878C263.248 73.4878 263.411 73.4878 263.493 73.4878C263.575 73.4878 263.602 73.4878 263.602 73.5422C263.602 73.5966 263.547 73.6238 263.466 73.6238C263.004 73.6238 262.542 73.6238 262.351 73.6238C262.188 73.6238 261.726 73.6238 261.455 73.6238C261.346 73.6238 261.319 73.6238 261.319 73.5422C261.319 73.515 261.346 73.4878 261.427 73.4878C261.536 73.4878 261.618 73.4878 261.672 73.4878C261.808 73.4606 261.862 73.2975 261.889 73.08C261.917 72.781 261.917 72.21 261.917 71.5575V68.6213L261.944 68.6756ZM268.521 70.9866C268.521 69.7631 269.336 68.1863 271.483 68.1863C273.277 68.1863 274.364 69.2194 274.364 70.8506C274.364 72.4819 273.223 73.7869 271.402 73.7869C269.336 73.7869 268.521 72.2372 268.521 70.9866ZM273.359 71.1225C273.359 69.5184 272.435 68.5125 271.266 68.5125C270.451 68.5125 269.499 68.9747 269.499 70.7419C269.499 72.2372 270.315 73.4062 271.701 73.4062C272.19 73.4062 273.359 73.1615 273.359 71.0953M279.501 72.6994C279.501 73.2703 279.61 73.4334 279.746 73.4878C279.854 73.5422 279.99 73.5422 280.126 73.5422C280.208 73.5422 280.235 73.5422 280.235 73.5966C280.235 73.651 280.18 73.6781 280.072 73.6781C279.61 73.6781 279.311 73.6781 279.175 73.6781C279.12 73.6781 278.767 73.6781 278.414 73.6781C278.332 73.6781 278.251 73.6781 278.251 73.5966C278.251 73.5422 278.305 73.5422 278.359 73.5422C278.441 73.5422 278.577 73.5422 278.686 73.515C278.876 73.4606 278.903 73.2431 278.903 72.6178L278.957 68.3765C278.957 68.2406 278.957 68.1319 279.039 68.1319C279.12 68.1319 279.175 68.2134 279.311 68.3494C279.392 68.4309 280.479 69.6 281.539 70.6331C282.028 71.1225 282.98 72.1556 283.116 72.2644H283.143L283.061 69.0562C283.061 68.6212 282.98 68.4853 282.817 68.4038C282.708 68.3494 282.545 68.3494 282.436 68.3494C282.355 68.3494 282.327 68.3494 282.327 68.295C282.327 68.2406 282.409 68.2406 282.518 68.2406C282.898 68.2406 283.224 68.2406 283.387 68.2406C283.469 68.2406 283.741 68.2406 284.094 68.2406C284.175 68.2406 284.257 68.2406 284.257 68.295C284.257 68.3494 284.203 68.3494 284.121 68.3494C284.04 68.3494 283.985 68.3494 283.904 68.3494C283.713 68.4037 283.632 68.5669 283.632 68.9475L283.55 73.4606C283.55 73.6238 283.523 73.6781 283.469 73.6781C283.387 73.6781 283.306 73.5965 283.224 73.515C282.762 73.08 281.865 72.1556 281.104 71.4216C280.316 70.6331 279.528 69.7631 279.392 69.6272L279.474 72.645L279.501 72.6994ZM288.252 70.9866C288.252 69.7631 289.068 68.1863 291.215 68.1863C292.981 68.1863 294.096 69.2194 294.096 70.8506C294.096 72.4819 292.954 73.7869 291.133 73.7869C289.068 73.7869 288.252 72.2372 288.252 70.9866ZM293.09 71.1225C293.09 69.5184 292.166 68.5125 290.997 68.5125C290.182 68.5125 289.231 68.9747 289.231 70.7419C289.231 72.2372 290.046 73.4062 291.432 73.4062C291.921 73.4062 293.09 73.1615 293.09 71.0953M299.096 68.295C299.096 68.295 299.151 68.1047 299.205 68.1047C299.259 68.1047 299.314 68.1319 299.395 68.3222L301.352 72.3459L303.309 68.2678C303.309 68.2678 303.391 68.1047 303.472 68.1047C303.554 68.1047 303.581 68.1863 303.608 68.3222L304.26 72.7537C304.315 73.2159 304.396 73.4062 304.613 73.4878C304.831 73.5422 304.967 73.5694 305.048 73.5694C305.103 73.5694 305.157 73.5694 305.157 73.6238C305.157 73.6781 305.076 73.7053 304.967 73.7053C304.777 73.7053 303.798 73.7053 303.526 73.6509C303.363 73.6509 303.309 73.6237 303.309 73.5694C303.309 73.5422 303.336 73.515 303.391 73.4878C303.445 73.4878 303.445 73.3791 303.418 73.1887L302.983 70.035H302.956L301.406 73.2975C301.243 73.6238 301.216 73.7053 301.135 73.7053C301.053 73.7053 300.999 73.5694 300.89 73.3519C300.727 73.0256 300.156 71.9381 300.075 71.7206C300.02 71.5847 299.586 70.6603 299.341 70.1438H299.314L298.933 72.9985C298.933 72.9985 298.933 73.2159 298.933 73.3247C298.933 73.4606 299.015 73.515 299.151 73.5422C299.287 73.5694 299.368 73.5694 299.45 73.5694C299.504 73.5694 299.558 73.5694 299.558 73.6238C299.558 73.6781 299.504 73.7053 299.395 73.7053C299.096 73.7053 298.77 73.7053 298.634 73.7053C298.499 73.7053 298.145 73.7053 297.928 73.7053C297.846 73.7053 297.792 73.7053 297.792 73.6238C297.792 73.5966 297.846 73.5694 297.901 73.5694C297.955 73.5694 298.009 73.5694 298.118 73.5694C298.308 73.5422 298.363 73.2431 298.417 72.9985L299.124 68.3494L299.096 68.295ZM308.663 70.9866C308.663 69.7631 309.478 68.1863 311.626 68.1863C313.419 68.1863 314.506 69.2194 314.506 70.8506C314.506 72.4819 313.365 73.7869 311.544 73.7869C309.479 73.7869 308.663 72.2372 308.663 70.9866ZM313.501 71.1225C313.501 69.5184 312.577 68.5125 311.408 68.5125C310.593 68.5125 309.642 68.9747 309.642 70.7419C309.642 72.2372 310.457 73.4062 311.843 73.4062C312.332 73.4062 313.501 73.1615 313.501 71.0953M318.964 70.3613C318.964 69.2738 318.964 69.0835 318.964 68.8388C318.964 68.5941 318.882 68.4853 318.665 68.4309C318.61 68.4309 318.474 68.4309 318.393 68.4309C318.311 68.4309 318.284 68.4309 318.284 68.3765C318.284 68.3222 318.339 68.3222 318.447 68.3222C318.828 68.3222 319.263 68.3222 319.48 68.3222C319.643 68.3222 320.105 68.3222 320.35 68.3222C320.458 68.3222 320.513 68.3222 320.513 68.3765C320.513 68.4309 320.459 68.4309 320.404 68.4309C320.323 68.4309 320.295 68.4309 320.187 68.4309C319.996 68.4581 319.942 68.5941 319.915 68.8388C319.915 69.0563 319.915 69.2738 319.915 70.3613V71.3672C319.915 72.4003 320.132 72.8353 320.486 73.1344C320.812 73.4062 321.138 73.4334 321.383 73.4334C321.709 73.4334 322.089 73.3247 322.361 73.0528C322.741 72.645 322.769 72.0197 322.769 71.2856V70.3884C322.769 69.3009 322.769 69.1106 322.769 68.8659C322.769 68.6213 322.687 68.5125 322.47 68.4581C322.415 68.4581 322.279 68.4581 322.225 68.4581C322.171 68.4581 322.089 68.4581 322.089 68.4038C322.089 68.3494 322.144 68.3494 322.252 68.3494C322.606 68.3494 323.068 68.3494 323.068 68.3494C323.149 68.3494 323.611 68.3494 323.883 68.3494C323.992 68.3494 324.019 68.3494 324.019 68.4038C324.019 68.4581 323.992 68.4581 323.883 68.4581C323.801 68.4581 323.774 68.4581 323.665 68.4581C323.475 68.4853 323.421 68.6213 323.394 68.8659C323.394 69.0834 323.394 69.3009 323.394 70.3884V71.1497C323.394 71.9381 323.312 72.781 322.714 73.2975C322.198 73.7325 321.682 73.814 321.219 73.814C320.839 73.814 320.16 73.8141 319.643 73.3247C319.29 72.9984 319.018 72.4547 319.018 71.4216V70.3884L318.964 70.3613ZM328.068 73.5966C328.068 73.5966 327.932 73.515 327.932 73.3519C327.932 72.9712 327.96 72.5362 327.96 72.4275C327.96 72.3187 327.987 72.2372 328.041 72.2372C328.096 72.2372 328.123 72.2915 328.123 72.3731C328.123 72.4547 328.15 72.6178 328.177 72.7266C328.34 73.2703 328.748 73.4606 329.21 73.4606C329.862 73.4606 330.161 73.0256 330.161 72.645C330.161 72.2916 330.052 71.9653 329.454 71.5031L329.128 71.2585C328.34 70.6331 328.068 70.1437 328.068 69.5728C328.068 68.7844 328.721 68.2134 329.726 68.2134C330.188 68.2134 330.487 68.295 330.677 68.3494C330.732 68.3494 330.786 68.3766 330.786 68.4309C330.786 68.5125 330.759 68.73 330.759 69.301C330.759 69.4641 330.759 69.5185 330.677 69.5185C330.623 69.5185 330.596 69.4641 330.596 69.3825C330.596 69.3281 330.569 69.1106 330.406 68.9203C330.297 68.7844 330.107 68.5669 329.617 68.5669C329.101 68.5669 328.775 68.866 328.775 69.301C328.775 69.6272 328.938 69.8719 329.536 70.334L329.726 70.4972C330.596 71.1497 330.895 71.6391 330.895 72.3188C330.895 72.7266 330.732 73.2159 330.215 73.5694C329.862 73.7869 329.454 73.8684 329.074 73.8684C328.666 73.8684 328.34 73.8141 328.041 73.6781M341.331 70.3613C341.331 69.2738 341.331 69.0835 341.331 68.8388C341.331 68.5941 341.25 68.4853 341.087 68.4309C341.005 68.4309 340.924 68.4038 340.842 68.4038C340.761 68.4038 340.733 68.4038 340.733 68.3222C340.733 68.2678 340.788 68.2678 340.896 68.2678C341.168 68.2678 341.63 68.2678 341.82 68.2678C342.011 68.2678 342.418 68.2678 342.69 68.2678C342.772 68.2678 342.826 68.2678 342.826 68.3222C342.826 68.3766 342.799 68.4038 342.717 68.4038C342.636 68.4038 342.581 68.4038 342.5 68.4038C342.31 68.4309 342.255 68.5669 342.228 68.8116C342.228 69.0291 342.228 69.2465 342.228 70.334V71.5847C342.228 72.2916 342.228 72.8353 342.255 73.1616C342.255 73.3519 342.337 73.4878 342.554 73.515C342.663 73.515 342.799 73.515 342.908 73.515C342.989 73.515 343.016 73.515 343.016 73.5694C343.016 73.6237 342.962 73.6509 342.88 73.6509C342.418 73.6509 341.956 73.6509 341.766 73.6509C341.603 73.6509 341.141 73.6509 340.869 73.6509C340.788 73.6509 340.733 73.6509 340.733 73.5694C340.733 73.5422 340.761 73.515 340.842 73.515C340.951 73.515 341.032 73.515 341.087 73.515C341.223 73.4878 341.277 73.3519 341.304 73.1616C341.331 72.8625 341.331 72.2916 341.331 71.6119V70.3613ZM348.343 72.6994C348.343 73.2703 348.452 73.4334 348.588 73.4878C348.724 73.5422 348.86 73.5422 348.968 73.5422C349.05 73.5422 349.077 73.5422 349.077 73.5966C349.077 73.651 349.023 73.6781 348.914 73.6781C348.452 73.6781 348.153 73.6781 348.017 73.6781C347.963 73.6781 347.61 73.6781 347.229 73.6781C347.148 73.6781 347.066 73.6781 347.066 73.5966C347.066 73.5422 347.12 73.5422 347.175 73.5422C347.256 73.5422 347.392 73.5422 347.501 73.515C347.691 73.4606 347.718 73.2431 347.718 72.6178L347.773 68.3765C347.773 68.2406 347.773 68.1319 347.854 68.1319C347.936 68.1319 347.99 68.2134 348.126 68.3494C348.207 68.4309 349.295 69.6 350.354 70.6331C350.844 71.1225 351.795 72.1556 351.931 72.2644H351.958L351.876 69.0562C351.876 68.6212 351.795 68.4853 351.632 68.4038C351.523 68.3494 351.36 68.3494 351.251 68.3494C351.17 68.3494 351.143 68.3494 351.143 68.295C351.143 68.2406 351.224 68.2406 351.333 68.2406C351.713 68.2406 352.04 68.2406 352.203 68.2406C352.284 68.2406 352.556 68.2406 352.909 68.2406C352.991 68.2406 353.072 68.2406 353.072 68.295C353.072 68.3494 353.018 68.3494 352.936 68.3494C352.855 68.3494 352.8 68.3494 352.719 68.3494C352.529 68.4037 352.447 68.5669 352.447 68.9475L352.366 73.4606C352.366 73.6238 352.339 73.6781 352.284 73.6781C352.203 73.6781 352.121 73.5965 352.04 73.515C351.577 73.08 350.681 72.1556 349.92 71.4216C349.132 70.6331 348.343 69.7631 348.207 69.6272L348.289 72.645L348.343 72.6994ZM357.367 73.5966C357.367 73.5966 357.231 73.515 357.231 73.3519C357.231 72.9712 357.258 72.5362 357.258 72.4275C357.258 72.3187 357.285 72.2372 357.339 72.2372C357.394 72.2372 357.421 72.2915 357.421 72.3731C357.421 72.4547 357.448 72.6178 357.475 72.7266C357.638 73.2703 358.046 73.4606 358.508 73.4606C359.16 73.4606 359.459 73.0256 359.459 72.645C359.459 72.2916 359.351 71.9653 358.753 71.5031L358.426 71.2585C357.638 70.6331 357.367 70.1437 357.367 69.5728C357.367 68.7844 358.019 68.2134 359.024 68.2134C359.486 68.2134 359.785 68.295 359.976 68.3494C360.03 68.3494 360.084 68.3766 360.084 68.4309C360.084 68.5125 360.057 68.73 360.057 69.301C360.057 69.4641 360.057 69.5185 359.976 69.5185C359.921 69.5185 359.894 69.4641 359.894 69.3825C359.894 69.3281 359.867 69.1106 359.704 68.9203C359.595 68.7844 359.378 68.5669 358.916 68.5669C358.399 68.5669 358.073 68.866 358.073 69.301C358.073 69.6272 358.236 69.8719 358.834 70.334L359.024 70.4972C359.894 71.1497 360.193 71.6391 360.193 72.3188C360.193 72.7266 360.03 73.2159 359.514 73.5694C359.16 73.7869 358.753 73.8684 358.372 73.8684C357.964 73.8684 357.638 73.8141 357.312 73.6781M366.227 68.6756H365.167C364.759 68.73 364.569 68.7572 364.46 68.9203C364.378 69.0291 364.351 69.1106 364.351 69.165C364.351 69.2194 364.324 69.2466 364.27 69.2466C364.215 69.2466 364.215 69.2194 364.215 69.1378C364.215 69.029 364.351 68.3766 364.379 68.3222C364.379 68.2406 364.433 68.1863 364.46 68.1863C364.514 68.1863 364.596 68.2678 364.759 68.2678C364.976 68.2678 365.248 68.295 365.466 68.295H368.292C368.537 68.295 368.673 68.295 368.781 68.2678C368.89 68.2678 368.944 68.2406 368.972 68.2406C369.026 68.2406 369.026 68.295 369.026 68.3765C369.026 68.5125 369.026 69.0291 369.026 69.1922C369.026 69.2737 369.026 69.301 368.972 69.301C368.917 69.301 368.89 69.2738 368.89 69.165V69.0834C368.89 68.8931 368.673 68.7028 368.048 68.6756H367.151V71.5847C367.151 72.2372 367.151 72.8081 367.178 73.1072C367.178 73.2975 367.232 73.4606 367.45 73.4878C367.558 73.4878 367.694 73.4878 367.803 73.4878C367.884 73.4878 367.912 73.4878 367.912 73.5422C367.912 73.5966 367.857 73.6238 367.776 73.6238C367.314 73.6238 366.852 73.6238 366.661 73.6238C366.498 73.6238 366.036 73.6238 365.764 73.6238C365.683 73.6238 365.629 73.6238 365.629 73.5422C365.629 73.515 365.656 73.4878 365.737 73.4878C365.846 73.4878 365.928 73.4878 365.982 73.4878C366.118 73.4606 366.172 73.2975 366.199 73.08C366.227 72.781 366.227 72.21 366.227 71.5575V68.6213V68.6756ZM373.755 70.3613C373.755 69.2738 373.755 69.0835 373.755 68.8388C373.755 68.5941 373.673 68.4853 373.51 68.4309C373.429 68.4309 373.347 68.4038 373.266 68.4038C373.184 68.4038 373.157 68.4038 373.157 68.3222C373.157 68.2678 373.211 68.2678 373.32 68.2678C373.592 68.2678 374.054 68.2678 374.244 68.2678C374.434 68.2678 374.842 68.2678 375.114 68.2678C375.195 68.2678 375.277 68.2678 375.277 68.3222C375.277 68.3766 375.223 68.4038 375.168 68.4038C375.114 68.4038 375.032 68.4038 374.951 68.4038C374.76 68.4309 374.706 68.5669 374.679 68.8116C374.679 69.0291 374.679 69.2465 374.679 70.334V71.5847C374.679 72.2916 374.679 72.8353 374.706 73.1616C374.706 73.3519 374.788 73.4878 375.005 73.515C375.114 73.515 375.25 73.515 375.358 73.515C375.44 73.515 375.467 73.515 375.467 73.5694C375.467 73.6237 375.413 73.6509 375.331 73.6509C374.869 73.6509 374.407 73.6509 374.217 73.6509C374.054 73.6509 373.592 73.6509 373.32 73.6509C373.239 73.6509 373.184 73.6509 373.184 73.5694C373.184 73.5422 373.211 73.515 373.293 73.515C373.402 73.515 373.483 73.515 373.538 73.515C373.673 73.4878 373.728 73.3519 373.755 73.1616C373.782 72.8625 373.782 72.2916 373.782 71.6119V70.3613H373.755ZM381.283 68.6756H380.223C379.816 68.73 379.626 68.7572 379.517 68.9203C379.435 69.0291 379.408 69.1106 379.408 69.165C379.408 69.2194 379.381 69.2466 379.327 69.2466C379.272 69.2466 379.272 69.2194 379.272 69.1378C379.272 69.029 379.408 68.3766 379.408 68.3222C379.408 68.2406 379.462 68.1863 379.49 68.1863C379.544 68.1863 379.625 68.2678 379.789 68.2678C380.006 68.2678 380.278 68.295 380.495 68.295H383.322C383.539 68.295 383.702 68.295 383.811 68.2678C383.92 68.2678 383.974 68.2406 384.001 68.2406C384.055 68.2406 384.056 68.295 384.056 68.3765C384.056 68.5125 384.056 69.0291 384.056 69.1922C384.056 69.2737 384.055 69.301 384.001 69.301C383.947 69.301 383.92 69.2738 383.92 69.165V69.0834C383.92 68.8931 383.702 68.7028 383.077 68.6756H382.18V71.5847C382.18 72.2372 382.18 72.8081 382.207 73.1072C382.207 73.2975 382.262 73.4606 382.479 73.4878C382.588 73.4878 382.751 73.4878 382.832 73.4878C382.914 73.4878 382.941 73.4878 382.941 73.5422C382.941 73.5966 382.887 73.6238 382.805 73.6238C382.343 73.6238 381.881 73.6238 381.691 73.6238C381.528 73.6238 381.066 73.6238 380.794 73.6238C380.713 73.6238 380.658 73.6238 380.658 73.5422C380.658 73.515 380.685 73.4878 380.767 73.4878C380.876 73.4878 380.957 73.4878 381.012 73.4878C381.147 73.4606 381.202 73.2975 381.229 73.08C381.256 72.781 381.256 72.21 381.256 71.5575V68.6213L381.283 68.6756ZM388.703 70.3613C388.703 69.2738 388.703 69.0835 388.703 68.8388C388.703 68.5941 388.621 68.4853 388.404 68.4309C388.35 68.4309 388.214 68.4309 388.132 68.4309C388.051 68.4309 388.023 68.4309 388.023 68.3765C388.023 68.3222 388.078 68.3222 388.187 68.3222C388.567 68.3222 389.029 68.3222 389.246 68.3222C389.41 68.3222 389.872 68.3222 390.116 68.3222C390.225 68.3222 390.279 68.3222 390.279 68.3765C390.279 68.4309 390.225 68.4309 390.171 68.4309C390.089 68.4309 390.035 68.4309 389.953 68.4309C389.763 68.4581 389.709 68.5941 389.681 68.8388C389.681 69.0563 389.681 69.2738 389.681 70.3613V71.3672C389.681 72.4003 389.899 72.8353 390.252 73.1344C390.578 73.4062 390.904 73.4334 391.149 73.4334C391.475 73.4334 391.856 73.3247 392.127 73.0528C392.508 72.645 392.535 72.0197 392.535 71.2856V70.3884C392.535 69.3009 392.535 69.1106 392.535 68.8659C392.535 68.6213 392.454 68.5125 392.236 68.4581C392.182 68.4581 392.046 68.4581 391.964 68.4581C391.883 68.4581 391.856 68.4581 391.856 68.4038C391.856 68.3494 391.91 68.3494 392.019 68.3494C392.372 68.3494 392.834 68.3494 392.834 68.3494C392.916 68.3494 393.378 68.3494 393.649 68.3494C393.758 68.3494 393.812 68.3494 393.812 68.4038C393.812 68.4581 393.758 68.4581 393.677 68.4581C393.595 68.4581 393.568 68.4581 393.459 68.4581C393.269 68.4853 393.215 68.6213 393.187 68.8659C393.187 69.0834 393.187 69.3009 393.187 70.3884V71.1497C393.187 71.9381 393.106 72.781 392.508 73.2975C391.992 73.7325 391.475 73.814 391.013 73.814C390.633 73.814 389.953 73.8141 389.437 73.3247C389.056 72.9984 388.812 72.4547 388.812 71.4216V70.3884L388.703 70.3613ZM399.574 68.6756H398.514C398.107 68.73 397.916 68.7572 397.808 68.9203C397.726 69.0291 397.699 69.1106 397.699 69.165C397.699 69.2194 397.672 69.2466 397.617 69.2466C397.563 69.2466 397.563 69.2194 397.563 69.1378C397.563 69.029 397.699 68.3766 397.699 68.3222C397.699 68.2406 397.753 68.1863 397.781 68.1863C397.835 68.1863 397.916 68.2678 398.079 68.2678C398.297 68.2678 398.569 68.295 398.786 68.295H401.613C401.83 68.295 401.993 68.295 402.102 68.2678C402.211 68.2678 402.265 68.2406 402.292 68.2406C402.346 68.2406 402.346 68.295 402.346 68.3765C402.346 68.5125 402.346 69.0291 402.346 69.1922C402.346 69.2737 402.346 69.301 402.292 69.301C402.238 69.301 402.211 69.2738 402.211 69.165V69.0834C402.211 68.8931 401.993 68.7028 401.368 68.6756H400.471V71.5847C400.471 72.2372 400.471 72.8081 400.498 73.1072C400.498 73.2975 400.553 73.4606 400.77 73.4878C400.879 73.4878 401.015 73.4878 401.123 73.4878C401.205 73.4878 401.232 73.4878 401.232 73.5422C401.232 73.5966 401.178 73.6238 401.096 73.6238C400.634 73.6238 400.172 73.6238 399.982 73.6238C399.819 73.6238 399.357 73.6238 399.085 73.6238C399.003 73.6238 398.949 73.6238 398.949 73.5422C398.949 73.515 398.976 73.4878 399.058 73.4878C399.167 73.4878 399.248 73.4878 399.302 73.4878C399.438 73.4606 399.493 73.2975 399.52 73.08C399.547 72.781 399.547 72.21 399.547 71.5575V68.6213L399.574 68.6756ZM407.103 70.3613C407.103 69.2738 407.103 69.0835 407.103 68.8388C407.103 68.5941 407.021 68.4853 406.858 68.4309C406.777 68.4309 406.695 68.4038 406.586 68.4038C406.505 68.4038 406.478 68.4038 406.478 68.3222C406.478 68.2678 406.532 68.2678 406.641 68.2678C406.912 68.2678 407.374 68.2678 407.565 68.2678C407.755 68.2678 408.163 68.2678 408.434 68.2678C408.516 68.2678 408.597 68.2678 408.597 68.3222C408.597 68.3766 408.543 68.4038 408.489 68.4038C408.434 68.4038 408.353 68.4038 408.271 68.4038C408.081 68.4309 408.027 68.5669 408 68.8116C408 69.0291 408 69.2465 408 70.334V71.5847C408 72.2916 408 72.8353 408.027 73.1616C408.027 73.3519 408.108 73.4878 408.326 73.515C408.434 73.515 408.57 73.515 408.679 73.515C408.761 73.515 408.788 73.515 408.788 73.5694C408.788 73.6237 408.733 73.6509 408.652 73.6509C408.19 73.6509 407.728 73.6509 407.538 73.6509C407.374 73.6509 406.912 73.6509 406.641 73.6509C406.559 73.6509 406.505 73.6509 406.505 73.5694C406.505 73.5422 406.532 73.515 406.613 73.515C406.722 73.515 406.804 73.515 406.858 73.515C406.994 73.4878 407.048 73.3519 407.075 73.1616C407.103 72.8625 407.103 72.2916 407.103 71.6119V70.3613ZM412.647 70.9866C412.647 69.7631 413.462 68.1863 415.609 68.1863C417.403 68.1863 418.49 69.2194 418.49 70.8506C418.49 72.4819 417.349 73.7869 415.528 73.7869C413.462 73.7869 412.647 72.2372 412.647 70.9866ZM417.485 71.1225C417.485 69.5184 416.561 68.5125 415.392 68.5125C414.577 68.5125 413.625 68.9747 413.625 70.7419C413.625 72.2372 414.441 73.4062 415.827 73.4062C416.316 73.4062 417.485 73.1615 417.485 71.0953M423.654 72.6994C423.654 73.2703 423.763 73.4334 423.899 73.4878C424.007 73.5422 424.143 73.5422 424.279 73.5422C424.361 73.5422 424.388 73.5422 424.388 73.5966C424.388 73.651 424.334 73.6781 424.225 73.6781C423.763 73.6781 423.464 73.6781 423.328 73.6781C423.274 73.6781 422.92 73.6781 422.567 73.6781C422.485 73.6781 422.404 73.6781 422.404 73.5966C422.404 73.5422 422.458 73.5422 422.513 73.5422C422.621 73.5422 422.73 73.5422 422.839 73.515C423.029 73.4606 423.056 73.2431 423.056 72.6178L423.111 68.3765C423.111 68.2406 423.111 68.1319 423.192 68.1319C423.274 68.1319 423.328 68.2134 423.464 68.3494C423.545 68.4309 424.633 69.6 425.693 70.6331C426.182 71.1225 427.133 72.1556 427.269 72.2644H427.296L427.215 69.0562C427.215 68.6212 427.133 68.4853 426.97 68.4038C426.861 68.3494 426.698 68.3494 426.589 68.3494C426.508 68.3494 426.481 68.3494 426.481 68.295C426.481 68.2406 426.562 68.2406 426.671 68.2406C427.051 68.2406 427.378 68.2406 427.541 68.2406C427.622 68.2406 427.894 68.2406 428.247 68.2406C428.329 68.2406 428.41 68.2406 428.41 68.295C428.41 68.3494 428.356 68.3494 428.274 68.3494C428.193 68.3494 428.139 68.3494 428.057 68.3494C427.867 68.4037 427.812 68.5669 427.785 68.9475L427.704 73.4606C427.704 73.6238 427.676 73.6781 427.622 73.6781C427.541 73.6781 427.459 73.5965 427.378 73.515C426.916 73.08 426.019 72.1556 425.258 71.4216C424.469 70.6331 423.681 69.7631 423.545 69.6272L423.627 72.645L423.654 72.6994ZM432.596 68.1319C432.596 68.1319 432.541 68.0775 432.541 68.0231C432.541 67.9959 432.569 67.9688 432.596 67.9688C432.596 67.9688 432.65 67.9687 432.677 67.9959C433.248 68.4037 434.281 69.4913 434.281 71.041C434.281 72.5906 433.112 73.8413 432.677 74.1403C432.65 74.1403 432.623 74.1675 432.596 74.1675C432.596 74.1675 432.541 74.1403 432.541 74.1131C432.541 74.1131 432.541 74.0587 432.596 74.0316C432.922 73.6509 433.601 72.4819 433.601 71.1225C433.601 69.7631 433.167 68.8388 432.623 68.1047" fill="#DBA328"/>
<path d="M24.325 33.597C28.0459 35.7487 31.7824 37.2092 35.0794 37.9317C35.8016 38.0887 36.5081 38.2144 37.1832 38.3086C37.6228 38.3714 38.0467 38.4186 38.4706 38.4343C36.2412 35.1204 32.2535 31.5396 27.2138 28.6185C22.1584 25.6973 17.0717 24.0482 13.0839 23.7812C15.3133 27.0951 19.2853 30.6916 24.3407 33.597M44.7976 5.4375C41.8147 9.9292 39.9307 16.494 39.9307 23.8126C39.9307 31.1313 41.8147 37.6804 44.7976 42.1878C47.7806 37.6961 49.6647 31.1313 49.6647 23.8126C49.6647 16.494 47.7806 9.94491 44.7976 5.4375ZM51.1561 38.45C51.58 38.4185 52.0196 38.3871 52.4749 38.3243C53.15 38.2301 53.8564 38.1044 54.5786 37.9474C57.8756 37.2092 61.5965 35.7486 65.3017 33.6127C70.3571 30.6916 74.3291 27.1108 76.5585 23.7969C72.5707 24.0639 67.4683 25.7287 62.4286 28.6342C57.3732 31.5553 53.3855 35.1361 51.1718 38.4656M37.6699 29.7335C37.4658 26.6867 36.1942 22.8075 33.9648 18.944C31.7354 15.0962 29.0036 12.0494 26.4759 10.3533C26.68 13.4001 27.9516 17.295 30.1653 21.1428C32.3947 25.0062 35.1265 28.0374 37.6542 29.7335M59.43 21.1428C61.6593 17.2793 62.9153 13.4001 63.1194 10.3533C60.5917 12.0494 57.8443 15.0962 55.6306 18.944C53.4012 22.8075 52.1452 26.6867 51.9411 29.7335C54.4688 28.0374 57.2006 24.9905 59.43 21.1428ZM13.8689 35.4502C15.8157 35.9685 17.7153 35.8272 19.1754 35.1676C18.2491 33.864 16.6791 32.7647 14.7324 32.2464C12.7856 31.7124 10.8859 31.8694 9.42578 32.5291C10.3521 33.8326 11.9221 34.932 13.8689 35.4502ZM26.0834 23.2787C25.9264 21.6767 25.11 19.9492 23.697 18.52C22.284 17.0908 20.557 16.2741 18.9556 16.1171C19.0969 17.719 19.9133 19.4466 21.342 20.8758C22.755 22.3049 24.482 23.1216 26.0834 23.2787ZM37.9996 16.4312C38.6747 14.9706 38.8317 13.0545 38.3136 11.1228C37.7955 9.17534 36.7122 7.60482 35.4091 6.66251C34.734 8.1231 34.577 10.0234 35.0951 11.9709C35.6132 13.9183 36.6965 15.4889 37.9996 16.4312ZM54.6728 12.0337C55.2066 10.0863 55.0496 8.18593 54.3903 6.72534C53.0872 7.65195 51.9882 9.22248 51.4701 11.1699C50.9363 13.1174 51.0933 15.0177 51.7527 16.4783C53.0558 15.5517 54.1547 13.9812 54.6728 12.0337ZM70.7967 16.2427C69.1953 16.3998 67.4683 17.2165 66.0396 18.6299C64.611 20.0434 63.7945 21.771 63.6375 23.3729C65.2389 23.2158 66.9659 22.3992 68.3946 20.9857C69.8233 19.5722 70.6397 17.8447 70.8124 16.2427M70.467 35.3089C71.9271 35.9842 73.8267 36.1413 75.7735 35.623C77.7203 35.1047 79.2903 34.0211 80.2323 32.7175C78.7722 32.0422 76.8725 31.8851 74.9257 32.4034C72.979 32.9217 71.409 34.0054 70.467 35.3089Z" fill="#DBA328"/>
<path d="M32.0802 61.0184L22.1422 70.9598C17.1182 67.0021 13.1618 61.7409 10.7598 55.6943H27.4017C28.642 57.736 30.2277 59.5264 32.096 61.0184" fill="#FFFFFF"/>
<path d="M24.388 45.0616C24.388 44.5905 24.7648 44.2136 25.2358 44.2136C25.7068 44.2136 26.0836 44.5905 26.0836 45.0616C26.0836 52.5373 30.4795 59.0079 36.838 62.0076V49.3963C36.838 49.0665 36.838 48.7053 36.838 48.3126C36.8694 46.6636 36.9008 44.4649 36.5397 42.2818C36.0844 42.219 35.6291 42.1719 35.1581 42.1719H8.1543C8.1543 46.3181 8.84508 50.2915 10.1011 53.9979H26.429C25.1102 51.2966 24.3723 48.2655 24.3723 45.0616" fill="#FFFFFF"/>
<path d="M38.3457 42.7061C38.6126 44.7791 38.5812 46.7894 38.5498 48.3443C38.5498 48.7369 38.5498 49.0824 38.5498 49.3965V62.7146C40.2611 63.3271 42.0822 63.6883 43.9819 63.7825V47.8417C42.8986 45.4545 40.8577 43.5855 38.3614 42.7061" fill="#FFFFFF"/>
<path d="M37.3394 64.0808C37.3394 64.0808 37.3081 64.0808 37.2924 64.0651C35.9422 63.5311 34.6548 62.8558 33.4616 62.0548L23.5078 72.0119C29.3011 76.1581 36.3503 78.671 43.9804 78.8437V65.4785C41.704 65.3843 39.5217 64.9132 37.4808 64.1279C37.4337 64.1279 37.3865 64.0965 37.3394 64.0808Z" fill="#FFFFFF"/>
<path d="M45.6621 47.9045V63.7825C47.5775 63.704 49.4144 63.3271 51.1414 62.6989V49.3965C51.1414 49.0824 51.1414 48.7212 51.1414 48.3443C51.11 46.7894 51.0786 44.7791 51.3455 42.7061C48.8021 43.5698 46.7454 45.4702 45.6621 47.9045Z" fill="#FFFFFF"/>
<path d="M52.4916 64.0022C52.366 64.065 52.2247 64.1121 52.0991 64.1593C52.0991 64.1593 52.0991 64.1593 52.0834 64.1593C50.0738 64.9288 47.9229 65.4 45.6621 65.4785V78.8437C53.2923 78.6709 60.3573 76.1738 66.1505 72.0119L56.1811 62.0391C55.035 62.8086 53.7947 63.4839 52.4916 64.0022Z" fill="#FFFFFF"/>
<path d="M57.5625 61.0027L67.5163 70.9598C72.5402 67.0021 76.4966 61.7409 78.8987 55.6943H62.241C61.0007 57.7203 59.4151 59.5107 57.5625 61.0027Z" fill="#FFFFFF"/>
<path d="M54.4691 42.1719C54.0138 42.1719 53.5584 42.2033 53.1188 42.2661C52.7577 44.4491 52.7891 46.6479 52.8205 48.3126C52.8205 48.7053 52.8205 49.0822 52.8205 49.3963V61.9919C59.1476 58.9765 63.5121 52.5216 63.5121 45.0774C63.5121 44.6062 63.889 44.2293 64.36 44.2293C64.831 44.2293 65.2077 44.6062 65.2077 45.0774C65.2077 48.2812 64.4698 51.3123 63.1511 54.0136H79.5103C80.782 50.3072 81.4572 46.3181 81.4572 42.1876H54.4533L54.4691 42.1719Z" fill="#FFFFFF"/>
</svg>
