<svg width="100" height="87" viewBox="0 0 100 87" fill="none" xmlns="http://www.w3.org/2000/svg">
<path d="M24.325 33.597C28.0459 35.7487 31.7824 37.2092 35.0794 37.9317C35.8016 38.0887 36.5081 38.2144 37.1832 38.3086C37.6228 38.3714 38.0467 38.4186 38.4706 38.4343C36.2412 35.1204 32.2535 31.5396 27.2138 28.6185C22.1584 25.6973 17.0717 24.0482 13.0839 23.7812C15.3133 27.0951 19.2853 30.6916 24.3407 33.597M44.7976 5.4375C41.8147 9.9292 39.9307 16.494 39.9307 23.8126C39.9307 31.1313 41.8147 37.6804 44.7976 42.1878C47.7806 37.6961 49.6647 31.1313 49.6647 23.8126C49.6647 16.494 47.7806 9.94491 44.7976 5.4375ZM51.1561 38.45C51.58 38.4185 52.0196 38.3871 52.4749 38.3243C53.15 38.2301 53.8564 38.1044 54.5786 37.9474C57.8756 37.2092 61.5965 35.7486 65.3017 33.6127C70.3571 30.6916 74.3291 27.1108 76.5585 23.7969C72.5707 24.0639 67.4683 25.7287 62.4286 28.6342C57.3732 31.5553 53.3855 35.1361 51.1718 38.4656M37.6699 29.7335C37.4658 26.6867 36.1942 22.8075 33.9648 18.944C31.7354 15.0962 29.0036 12.0494 26.4759 10.3533C26.68 13.4001 27.9516 17.295 30.1653 21.1428C32.3947 25.0062 35.1265 28.0374 37.6542 29.7335M59.43 21.1428C61.6593 17.2793 62.9153 13.4001 63.1194 10.3533C60.5917 12.0494 57.8443 15.0962 55.6306 18.944C53.4012 22.8075 52.1452 26.6867 51.9411 29.7335C54.4688 28.0374 57.2006 24.9905 59.43 21.1428ZM13.8689 35.4502C15.8157 35.9685 17.7153 35.8272 19.1754 35.1676C18.2491 33.864 16.6791 32.7647 14.7324 32.2464C12.7856 31.7124 10.8859 31.8694 9.42578 32.5291C10.3521 33.8326 11.9221 34.932 13.8689 35.4502ZM26.0834 23.2787C25.9264 21.6767 25.11 19.9492 23.697 18.52C22.284 17.0908 20.557 16.2741 18.9556 16.1171C19.0969 17.719 19.9133 19.4466 21.342 20.8758C22.755 22.3049 24.482 23.1216 26.0834 23.2787ZM37.9996 16.4312C38.6747 14.9706 38.8317 13.0545 38.3136 11.1228C37.7955 9.17534 36.7122 7.60482 35.4091 6.66251C34.734 8.1231 34.577 10.0234 35.0951 11.9709C35.6132 13.9183 36.6965 15.4889 37.9996 16.4312ZM54.6728 12.0337C55.2066 10.0863 55.0496 8.18593 54.3903 6.72534C53.0872 7.65195 51.9882 9.22248 51.4701 11.1699C50.9363 13.1174 51.0933 15.0177 51.7527 16.4783C53.0558 15.5517 54.1547 13.9812 54.6728 12.0337ZM70.7967 16.2427C69.1953 16.3998 67.4683 17.2165 66.0396 18.6299C64.611 20.0434 63.7945 21.771 63.6375 23.3729C65.2389 23.2158 66.9659 22.3992 68.3946 20.9857C69.8233 19.5722 70.6397 17.8447 70.8124 16.2427M70.467 35.3089C71.9271 35.9842 73.8267 36.1413 75.7735 35.623C77.7203 35.1047 79.2903 34.0211 80.2323 32.7175C78.7722 32.0422 76.8725 31.8851 74.9257 32.4034C72.979 32.9217 71.409 34.0054 70.467 35.3089Z" fill="#DBA328"/>
<path d="M32.0802 61.0184L22.1422 70.9598C17.1182 67.0021 13.1618 61.7409 10.7598 55.6943H27.4017C28.642 57.736 30.2277 59.5264 32.096 61.0184" fill="#FFFFFF"/>
<path d="M24.388 45.0616C24.388 44.5905 24.7648 44.2136 25.2358 44.2136C25.7068 44.2136 26.0836 44.5905 26.0836 45.0616C26.0836 52.5373 30.4795 59.0079 36.838 62.0076V49.3963C36.838 49.0665 36.838 48.7053 36.838 48.3126C36.8694 46.6636 36.9008 44.4649 36.5397 42.2818C36.0844 42.219 35.6291 42.1719 35.1581 42.1719H8.1543C8.1543 46.3181 8.84508 50.2915 10.1011 53.9979H26.429C25.1102 51.2966 24.3723 48.2655 24.3723 45.0616" fill="#FFFFFF"/>
<path d="M38.3457 42.7061C38.6126 44.7791 38.5812 46.7894 38.5498 48.3443C38.5498 48.7369 38.5498 49.0824 38.5498 49.3965V62.7146C40.2611 63.3271 42.0822 63.6883 43.9819 63.7825V47.8417C42.8986 45.4545 40.8577 43.5855 38.3614 42.7061" fill="#FFFFFF"/>
<path d="M37.3394 64.0808C37.3394 64.0808 37.3081 64.0808 37.2924 64.0651C35.9422 63.5311 34.6548 62.8558 33.4616 62.0548L23.5078 72.0119C29.3011 76.1581 36.3503 78.671 43.9804 78.8437V65.4785C41.704 65.3843 39.5217 64.9132 37.4808 64.1279C37.4337 64.1279 37.3865 64.0965 37.3394 64.0808Z" fill="#FFFFFF"/>
<path d="M45.6621 47.9045V63.7825C47.5775 63.704 49.4144 63.3271 51.1414 62.6989V49.3965C51.1414 49.0824 51.1414 48.7212 51.1414 48.3443C51.11 46.7894 51.0786 44.7791 51.3455 42.7061C48.8021 43.5698 46.7454 45.4702 45.6621 47.9045Z" fill="#FFFFFF"/>
<path d="M52.4916 64.0022C52.366 64.065 52.2247 64.1121 52.0991 64.1593C52.0991 64.1593 52.0991 64.1593 52.0834 64.1593C50.0738 64.9288 47.9229 65.4 45.6621 65.4785V78.8437C53.2923 78.6709 60.3573 76.1738 66.1505 72.0119L56.1811 62.0391C55.035 62.8086 53.7947 63.4839 52.4916 64.0022Z" fill="#FFFFFF"/>
<path d="M57.5625 61.0027L67.5163 70.9598C72.5402 67.0021 76.4966 61.7409 78.8987 55.6943H62.241C61.0007 57.7203 59.4151 59.5107 57.5625 61.0027Z" fill="#FFFFFF"/>
<path d="M54.4691 42.1719C54.0138 42.1719 53.5584 42.2033 53.1188 42.2661C52.7577 44.4491 52.7891 46.6479 52.8205 48.3126C52.8205 48.7053 52.8205 49.0822 52.8205 49.3963V61.9919C59.1476 58.9765 63.5121 52.5216 63.5121 45.0774C63.5121 44.6062 63.889 44.2293 64.36 44.2293C64.831 44.2293 65.2077 44.6062 65.2077 45.0774C65.2077 48.2812 64.4698 51.3123 63.1511 54.0136H79.5103C80.782 50.3072 81.4572 46.3181 81.4572 42.1876H54.4533L54.4691 42.1719Z" fill="#FFFFFF"/>
</svg>